<?xml version="1.0" standalone="no"?>
<!DOCTYPE svg PUBLIC "-//W3C//DTD SVG 20010904//EN"
 "http://www.w3.org/TR/2001/REC-SVG-20010904/DTD/svg10.dtd">
<svg version="1.0" xmlns="http://www.w3.org/2000/svg"
 width="512.000000pt" height="512.000000pt" viewBox="0 0 512.000000 512.000000"
 preserveAspectRatio="xMidYMid meet">

<g transform="translate(0.000000,512.000000) scale(0.100000,-0.100000)"
fill="#000000" stroke="none">
<path d="M2470 4384 c-195 -24 -375 -80 -565 -174 -498 -247 -839 -700 -962
-1277 -25 -120 -27 -144 -27 -373 0 -229 2 -253 27 -373 111 -519 395 -934
824 -1203 48 -30 88 -52 90 -50 2 2 -18 48 -46 102 -56 113 -113 270 -142 393
-64 264 -65 620 -3 876 11 50 17 122 18 250 2 158 6 192 29 277 80 300 262
533 518 668 140 73 259 102 419 103 182 2 274 -21 460 -112 l115 -56 100 0
c91 0 106 3 165 31 79 38 157 114 196 192 26 52 29 66 29 162 0 99 -2 110 -33
172 -22 45 -50 82 -85 113 -64 56 -257 153 -397 199 -187 62 -282 77 -500 81
-107 2 -211 1 -230 -1z"/>
<path d="M2845 2736 c-193 -62 -304 -237 -273 -430 17 -107 91 -216 183 -271
97 -56 122 -58 674 -52 555 6 573 4 657 -53 45 -32 93 -93 112 -145 20 -52 8
317 -12 390 -41 149 -141 308 -250 396 -69 57 -212 131 -301 156 -80 22 -726
30 -790 9z"/>
</g>
</svg>
