<svg version="1.1" id="Layer_1" xmlns="http://www.w3.org/2000/svg" xmlns:xlink="http://www.w3.org/1999/xlink" x="0px" y="0px"
	 width="100%" viewBox="0 0 50 50" enable-background="new 0 0 50 50" xml:space="preserve">
<path fill="#0D0204" opacity="1.000000" stroke="none" 
	d="
M36.011639,51.000000 
	C24.009508,51.000000 12.509784,51.000000 1.007545,51.000000 
	C1.005030,34.337090 1.005030,17.674175 1.002514,1.008446 
	C17.662510,1.005631 34.325024,1.005631 50.990654,1.002814 
	C50.993767,17.662109 50.993767,34.324223 50.993767,51.000000 
	C46.171352,51.000000 41.342701,51.000000 36.011639,51.000000 
M42.633301,10.971179 
	C36.345100,4.325627 28.848284,5.464319 20.949423,7.120070 
	C14.753134,8.418929 10.997773,11.928402 8.795614,17.482565 
	C4.960983,27.154062 7.515616,38.450565 14.655553,43.903149 
	C21.824852,49.378159 35.691101,49.290257 43.428917,43.583546 
	C44.543060,42.761852 45.638432,41.416489 45.973602,40.115391 
	C48.723385,29.441191 46.190395,26.161053 35.280155,26.354916 
	C32.732235,26.400187 29.108513,25.008337 28.512112,29.100664 
	C28.439840,29.596565 32.732422,30.656334 34.948776,31.582296 
	C36.543560,32.248577 39.087952,32.849342 39.386780,33.966633 
	C40.083717,36.572441 40.187500,39.367287 36.577953,40.930813 
	C24.043325,46.360363 13.254623,38.685558 14.567703,25.041805 
	C15.162763,18.858738 17.299580,13.457181 23.776882,11.525446 
	C29.818064,9.723777 34.799469,11.508519 38.424862,17.089413 
	C39.141232,18.192183 41.698544,18.099064 43.406872,18.557449 
	C43.717701,16.944107 44.189297,15.338159 44.263977,13.713960 
	C44.295975,13.018102 43.502083,12.284270 42.633301,10.971179 
z"/>
<path fill="#E22C3D" opacity="1.000000" stroke="none" 
	d="
M42.858372,11.269436 
	C43.502083,12.284270 44.295975,13.018102 44.263977,13.713960 
	C44.189297,15.338159 43.717701,16.944107 43.406876,18.557449 
	C41.698544,18.099064 39.141232,18.192183 38.424862,17.089413 
	C34.799469,11.508519 29.818064,9.723777 23.776882,11.525446 
	C17.299580,13.457181 15.162763,18.858738 14.567703,25.041805 
	C13.254623,38.685558 24.043325,46.360363 36.577953,40.930813 
	C40.187500,39.367287 40.083717,36.572441 39.386780,33.966633 
	C39.087952,32.849342 36.543560,32.248577 34.948776,31.582296 
	C32.732422,30.656334 28.439840,29.596565 28.512112,29.100664 
	C29.108513,25.008337 32.732235,26.400187 35.280155,26.354916 
	C46.190395,26.161053 48.723385,29.441191 45.973602,40.115391 
	C45.638432,41.416489 44.543060,42.761852 43.428917,43.583546 
	C35.691101,49.290257 21.824852,49.378159 14.655553,43.903149 
	C7.515616,38.450565 4.960983,27.154062 8.795614,17.482565 
	C10.997773,11.928402 14.753134,8.418929 20.949423,7.120070 
	C28.848284,5.464319 36.345100,4.325627 42.858372,11.269436 
z"/>
</svg>