<svg version="1.1" id="Layer_1" xmlns="http://www.w3.org/2000/svg" xmlns:xlink="http://www.w3.org/1999/xlink" x="0px" y="0px"
	 width="100%" viewBox="0 0 512 512" enable-background="new 0 0 512 512" xml:space="preserve">
<path fill="#000000" opacity="1.000000" stroke="none" 
	d="
M513.000000,183.000000 
	C513.000000,293.306519 513.000000,403.113037 513.000000,512.959778 
	C342.401794,512.959778 171.803604,512.959778 1.102697,512.959778 
	C1.102697,342.443512 1.102697,171.886932 1.102697,1.165182 
	C171.666534,1.165182 342.333252,1.165182 513.000000,1.165182 
	C513.000000,61.529697 513.000000,122.014847 513.000000,183.000000 
M157.495941,468.993103 
	C164.559860,472.338593 171.466766,476.079956 178.717026,478.955658 
	C200.815277,487.720520 223.718445,492.935577 247.442673,495.385315 
	C274.646667,498.194397 301.690369,497.492798 328.571686,493.399475 
	C371.629395,486.842987 411.395752,470.986511 448.370453,448.193329 
	C464.190308,438.441162 475.615631,425.163208 477.307617,405.646698 
	C478.097046,396.540466 478.744171,387.394562 478.833893,378.260498 
	C479.051544,356.098083 479.188019,333.926819 478.772827,311.770050 
	C478.592987,302.173126 477.874451,292.404144 475.811981,283.064117 
	C471.977936,265.701691 460.965088,254.082993 443.638092,249.666138 
	C435.164551,247.506134 426.226837,246.326233 417.481262,246.222839 
	C383.989105,245.826904 350.489563,246.013367 316.992950,246.076416 
	C312.181488,246.085464 307.348358,246.403107 302.563782,246.928757 
	C276.105194,249.835495 260.422180,271.554382 265.610229,297.652710 
	C267.679352,308.061157 273.429138,315.397675 282.657379,320.311737 
	C292.921722,325.777527 304.078033,327.677673 315.452545,327.858734 
	C335.778900,328.182251 356.114227,328.032349 376.444885,327.917664 
	C380.453552,327.895081 382.105347,329.158295 382.061249,333.372467 
	C381.895569,349.202484 381.917480,365.036224 382.075104,380.866486 
	C382.108612,384.233368 380.736816,386.147308 377.903564,387.466827 
	C373.076477,389.714935 368.327698,392.137848 363.455505,394.281708 
	C324.842896,411.272064 284.947998,418.489105 243.186096,408.890106 
	C223.648773,404.399414 206.327393,395.096039 192.323074,380.630005 
	C176.580811,364.368683 166.463776,344.752899 161.017899,322.854156 
	C154.580002,296.966431 152.678955,270.715881 154.820831,244.062958 
	C157.084030,215.900574 163.624939,189.217972 179.290253,165.311661 
	C193.368118,143.827911 212.881607,129.586426 237.390228,122.115143 
	C257.365540,116.025818 277.780365,115.595619 298.251770,118.248344 
	C317.886627,120.792671 335.163391,129.030823 348.197784,144.016541 
	C357.223938,154.394012 365.146240,165.851059 372.615875,177.435608 
	C384.567200,195.970795 403.418823,205.322723 424.350250,201.943085 
	C448.061920,198.114563 465.054443,178.121445 464.981140,154.066681 
	C464.924225,135.387024 457.071777,119.227448 446.681000,104.693192 
	C421.567230,69.564919 386.094574,49.930012 344.806580,39.935455 
	C316.734772,33.140133 288.260773,31.784916 259.492584,33.861378 
	C238.145691,35.402172 217.191132,38.652874 196.730957,45.044418 
	C158.150391,57.096592 124.913765,77.329193 98.909630,108.665550 
	C82.882683,127.978851 70.698433,149.588165 63.535698,173.569748 
	C58.456100,190.576767 54.512112,208.037094 51.607689,225.551529 
	C47.754177,248.789200 48.066212,272.342499 50.375580,295.772430 
	C52.521236,317.541382 57.107418,338.789948 64.539978,359.457520 
	C72.571198,381.789764 83.726875,402.401978 98.624336,420.724579 
	C114.724426,440.526306 134.054825,456.783966 157.495941,468.993103 
z"/>
<path fill="#34090F" opacity="1.000000" stroke="none" 
	d="
M157.187103,468.794861 
	C134.054825,456.783966 114.724426,440.526306 98.624336,420.724579 
	C83.726875,402.401978 72.571198,381.789764 64.539978,359.457520 
	C57.107418,338.789948 52.521236,317.541382 50.375580,295.772430 
	C48.066212,272.342499 47.754177,248.789200 51.607689,225.551529 
	C54.512112,208.037094 58.456100,190.576767 63.535698,173.569748 
	C70.698433,149.588165 82.882683,127.978851 98.909630,108.665550 
	C124.913765,77.329193 158.150391,57.096592 196.730957,45.044418 
	C217.191132,38.652874 238.145691,35.402172 259.492584,33.861378 
	C288.260773,31.784916 316.734772,33.140133 344.806580,39.935455 
	C386.094574,49.930012 421.567230,69.564919 446.681000,104.693192 
	C457.071777,119.227448 464.924225,135.387024 464.981140,154.066681 
	C465.054443,178.121445 448.061920,198.114563 424.350250,201.943085 
	C403.418823,205.322723 384.567200,195.970795 372.615875,177.435608 
	C365.146240,165.851059 357.223938,154.394012 348.197784,144.016541 
	C335.163391,129.030823 317.886627,120.792671 298.251770,118.248344 
	C277.780365,115.595619 257.365540,116.025818 237.390228,122.115143 
	C212.881607,129.586426 193.368118,143.827911 179.290253,165.311661 
	C163.624939,189.217972 157.084030,215.900574 154.820831,244.062958 
	C152.678955,270.715881 154.580002,296.966431 161.017899,322.854156 
	C166.463776,344.752899 176.580811,364.368683 192.323074,380.630005 
	C206.327393,395.096039 223.648773,404.399414 243.186096,408.890106 
	C284.947998,418.489105 324.842896,411.272064 363.455505,394.281708 
	C368.327698,392.137848 373.076477,389.714935 377.903564,387.466827 
	C380.736816,386.147308 382.108612,384.233368 382.075104,380.866486 
	C381.917480,365.036224 381.895569,349.202484 382.061249,333.372467 
	C382.105347,329.158295 380.453552,327.895081 376.444885,327.917664 
	C356.114227,328.032349 335.778900,328.182251 315.452545,327.858734 
	C304.078033,327.677673 292.921722,325.777527 282.657379,320.311737 
	C273.429138,315.397675 267.679352,308.061157 265.610229,297.652710 
	C260.422180,271.554382 276.105194,249.835495 302.563782,246.928757 
	C307.348358,246.403107 312.181488,246.085464 316.992950,246.076416 
	C350.489563,246.013367 383.989105,245.826904 417.481262,246.222839 
	C426.226837,246.326233 435.164551,247.506134 443.638092,249.666138 
	C460.965088,254.082993 471.977936,265.701691 475.811981,283.064117 
	C477.874451,292.404144 478.592987,302.173126 478.772827,311.770050 
	C479.188019,333.926819 479.051544,356.098083 478.833893,378.260498 
	C478.744171,387.394562 478.097046,396.540466 477.307617,405.646698 
	C475.615631,425.163208 464.190308,438.441162 448.370453,448.193329 
	C411.395752,470.986511 371.629395,486.842987 328.571686,493.399475 
	C301.690369,497.492798 274.646667,498.194397 247.442673,495.385315 
	C223.718445,492.935577 200.815277,487.720520 178.717026,478.955658 
	C171.466766,476.079956 164.559860,472.338593 157.187103,468.794861 
M65.178581,269.804596 
	C65.237762,271.174896 65.296936,272.545197 65.155434,274.818512 
	C65.860947,301.816406 70.155746,328.180969 79.400887,353.619171 
	C93.164116,391.489014 115.692947,422.746033 149.383804,445.428101 
	C184.458267,469.041718 223.798325,478.994171 265.464478,480.819031 
	C314.242371,482.955414 360.997162,474.250916 405.227081,453.178192 
	C420.258759,446.016541 435.504395,439.187683 448.357605,428.234375 
	C454.075470,423.361725 459.333527,417.679840 460.081665,410.174011 
	C461.444916,396.496887 461.573059,382.696625 462.347046,368.024292 
	C462.294037,347.029236 462.240997,326.034149 462.453033,304.363556 
	C462.045624,300.434326 461.638214,296.505096 461.263245,291.781647 
	C459.398193,286.504456 458.312897,280.763336 455.506348,276.046356 
	C449.596832,266.114044 439.170319,263.380859 428.708099,263.201874 
	C388.404022,262.512329 348.089264,262.375885 307.777832,262.255585 
	C300.844269,262.234894 294.332214,264.440002 288.841705,269.026062 
	C280.692169,275.833221 279.409241,284.778534 281.218231,294.460419 
	C282.850647,303.197449 289.402435,307.317688 297.279694,308.907745 
	C305.229797,310.512390 313.394989,311.708099 321.485657,311.835968 
	C345.141327,312.209778 368.807617,312.058105 392.467804,311.870361 
	C396.815643,311.835846 398.174286,313.064117 398.126862,317.506592 
	C397.908112,337.999847 397.137695,358.551819 398.381165,378.972168 
	C399.144226,391.503937 394.949524,397.591309 383.687164,402.934357 
	C344.222992,421.656769 303.497070,432.711365 259.490509,427.967194 
	C212.659195,422.918457 178.093979,399.711060 156.889053,357.420319 
	C144.968674,333.646454 140.208344,308.045441 138.595032,281.706116 
	C136.703796,250.829178 138.944061,220.441971 149.073654,190.984436 
	C160.152054,158.767624 179.155991,132.881500 209.570267,116.332588 
	C233.275421,103.434235 258.889374,99.799568 285.478394,100.932076 
	C320.320496,102.416092 349.026367,115.627502 369.510437,144.648468 
	C376.616364,154.715790 383.255554,165.139175 390.798340,174.864456 
	C399.391846,185.944473 414.520813,189.477676 427.918579,184.486588 
	C441.183990,179.544800 449.644073,167.380951 448.945221,153.103928 
	C448.193024,137.736572 441.188812,124.604904 432.464600,112.443253 
	C412.786560,85.011932 385.341583,68.483322 353.638275,59.069912 
	C302.177887,43.790203 250.525925,45.664383 199.496384,61.094212 
	C159.935776,73.056175 127.096565,95.401924 103.121750,129.568359 
	C80.515862,161.783951 69.856102,198.216339 66.123581,237.851501 
	C66.029755,240.599548 65.935936,243.347595 65.620598,246.934891 
	C65.507805,248.960388 65.395012,250.985870 65.059265,253.919952 
	C65.126335,258.941284 65.193405,263.962616 65.178581,269.804596 
z"/>
<path fill="#F23042" opacity="1.000000" stroke="none" 
	d="
M65.356117,273.915497 
	C65.296936,272.545197 65.237762,271.174896 65.388268,269.024109 
	C65.492706,263.166229 65.387459,258.088806 65.282211,253.011368 
	C65.395012,250.985870 65.507805,248.960388 65.944160,246.252899 
	C66.317581,242.729782 66.367439,239.888626 66.417297,237.047485 
	C69.856102,198.216339 80.515862,161.783951 103.121750,129.568359 
	C127.096565,95.401924 159.935776,73.056175 199.496384,61.094212 
	C250.525925,45.664383 302.177887,43.790203 353.638275,59.069912 
	C385.341583,68.483322 412.786560,85.011932 432.464600,112.443253 
	C441.188812,124.604904 448.193024,137.736572 448.945221,153.103928 
	C449.644073,167.380951 441.183990,179.544800 427.918579,184.486588 
	C414.520813,189.477676 399.391846,185.944473 390.798340,174.864456 
	C383.255554,165.139175 376.616364,154.715790 369.510437,144.648468 
	C349.026367,115.627502 320.320496,102.416092 285.478394,100.932076 
	C258.889374,99.799568 233.275421,103.434235 209.570267,116.332588 
	C179.155991,132.881500 160.152054,158.767624 149.073654,190.984436 
	C138.944061,220.441971 136.703796,250.829178 138.595032,281.706116 
	C140.208344,308.045441 144.968674,333.646454 156.889053,357.420319 
	C178.093979,399.711060 212.659195,422.918457 259.490509,427.967194 
	C303.497070,432.711365 344.222992,421.656769 383.687164,402.934357 
	C394.949524,397.591309 399.144226,391.503937 398.381165,378.972168 
	C397.137695,358.551819 397.908112,337.999847 398.126862,317.506592 
	C398.174286,313.064117 396.815643,311.835846 392.467804,311.870361 
	C368.807617,312.058105 345.141327,312.209778 321.485657,311.835968 
	C313.394989,311.708099 305.229797,310.512390 297.279694,308.907745 
	C289.402435,307.317688 282.850647,303.197449 281.218231,294.460419 
	C279.409241,284.778534 280.692169,275.833221 288.841705,269.026062 
	C294.332214,264.440002 300.844269,262.234894 307.777832,262.255585 
	C348.089264,262.375885 388.404022,262.512329 428.708099,263.201874 
	C439.170319,263.380859 449.596832,266.114044 455.506348,276.046356 
	C458.312897,280.763336 459.398193,286.504456 461.168640,292.666138 
	C461.445343,297.380127 461.816681,301.209625 462.187988,305.039093 
	C462.240997,326.034149 462.294037,347.029236 462.041931,368.830750 
	C461.496765,375.266266 461.305328,380.897949 461.004211,386.523773 
	C460.642212,393.287628 458.968903,399.549225 454.738159,405.110474 
	C447.361176,414.807526 437.257141,420.840363 426.828674,426.438385 
	C404.319916,438.521088 380.867065,448.388885 356.214905,455.146423 
	C322.988281,464.254364 289.129395,466.893646 254.826508,464.032593 
	C231.841080,462.115509 209.444229,457.651550 187.818420,449.334778 
	C154.822998,436.645569 127.406227,416.550232 106.274376,388.229797 
	C94.698128,372.715546 84.954781,355.916565 79.489487,337.289551 
	C74.728661,321.063538 71.655518,304.339417 67.932846,287.813721 
	C66.898170,283.220581 66.205627,278.550354 65.356117,273.915497 
M238.121811,76.386559 
	C246.727402,75.482307 255.339371,74.634048 263.936127,73.652534 
	C268.984619,73.076134 272.198242,69.536118 271.924774,65.142303 
	C271.642151,60.601578 268.198792,57.564747 262.997772,57.753376 
	C258.013123,57.934155 253.031219,58.414749 248.069153,58.956398 
	C220.696869,61.944283 194.502914,69.000610 170.007935,81.817383 
	C164.332718,84.786896 162.522369,88.968056 164.815964,93.465279 
	C167.099045,97.941864 171.665314,98.989494 177.252213,96.082069 
	C196.176895,86.233673 216.280975,80.054665 238.121811,76.386559 
M152.663940,110.624733 
	C153.857468,106.712311 153.307816,102.891685 149.556030,101.137482 
	C147.212540,100.041748 143.194626,99.688660 141.310089,100.995384 
	C136.173187,104.557259 131.484375,108.907646 127.174698,113.471321 
	C124.184669,116.637589 124.666603,120.651405 127.746010,123.798080 
	C130.657669,126.773323 134.507843,127.363548 137.687988,124.778320 
	C142.813354,120.611778 147.433868,115.824188 152.663940,110.624733 
z"/>
<path fill="#C82E37" opacity="1.000000" stroke="none" 
	d="
M65.255783,274.367004 
	C66.205627,278.550354 66.898170,283.220581 67.932846,287.813721 
	C71.655518,304.339417 74.728661,321.063538 79.489487,337.289551 
	C84.954781,355.916565 94.698128,372.715546 106.274376,388.229797 
	C127.406227,416.550232 154.822998,436.645569 187.818420,449.334778 
	C209.444229,457.651550 231.841080,462.115509 254.826508,464.032593 
	C289.129395,466.893646 322.988281,464.254364 356.214905,455.146423 
	C380.867065,448.388885 404.319916,438.521088 426.828674,426.438385 
	C437.257141,420.840363 447.361176,414.807526 454.738159,405.110474 
	C458.968903,399.549225 460.642212,393.287628 461.004211,386.523773 
	C461.305328,380.897949 461.496765,375.266266 461.976624,369.292480 
	C461.573059,382.696625 461.444916,396.496887 460.081665,410.174011 
	C459.333527,417.679840 454.075470,423.361725 448.357605,428.234375 
	C435.504395,439.187683 420.258759,446.016541 405.227081,453.178192 
	C360.997162,474.250916 314.242371,482.955414 265.464478,480.819031 
	C223.798325,478.994171 184.458267,469.041718 149.383804,445.428101 
	C115.692947,422.746033 93.164116,391.489014 79.400887,353.619171 
	C70.155746,328.180969 65.860947,301.816406 65.255783,274.367004 
z"/>
<path fill="#C82E37" opacity="1.000000" stroke="none" 
	d="
M65.170738,253.465668 
	C65.387459,258.088806 65.492706,263.166229 65.429214,268.613800 
	C65.193405,263.962616 65.126335,258.941284 65.170738,253.465668 
z"/>
<path fill="#C82E37" opacity="1.000000" stroke="none" 
	d="
M462.320526,304.701324 
	C461.816681,301.209625 461.445343,297.380127 461.152405,293.063263 
	C461.638214,296.505096 462.045624,300.434326 462.320526,304.701324 
z"/>
<path fill="#C82E37" opacity="1.000000" stroke="none" 
	d="
M66.270439,237.449493 
	C66.367439,239.888626 66.317581,242.729782 66.054916,245.833282 
	C65.935936,243.347595 66.029755,240.599548 66.270439,237.449493 
z"/>
<path fill="#FEF8F9" opacity="1.000000" stroke="none" 
	d="
M237.696533,76.485657 
	C216.280975,80.054665 196.176895,86.233673 177.252213,96.082069 
	C171.665314,98.989494 167.099045,97.941864 164.815964,93.465279 
	C162.522369,88.968056 164.332718,84.786896 170.007935,81.817383 
	C194.502914,69.000610 220.696869,61.944283 248.069153,58.956398 
	C253.031219,58.414749 258.013123,57.934155 262.997772,57.753376 
	C268.198792,57.564747 271.642151,60.601578 271.924774,65.142303 
	C272.198242,69.536118 268.984619,73.076134 263.936127,73.652534 
	C255.339371,74.634048 246.727402,75.482307 237.696533,76.485657 
z"/>
<path fill="#FEF6F7" opacity="1.000000" stroke="none" 
	d="
M152.465790,110.961838 
	C147.433868,115.824188 142.813354,120.611778 137.687988,124.778320 
	C134.507843,127.363548 130.657669,126.773323 127.746010,123.798080 
	C124.666603,120.651405 124.184669,116.637589 127.174698,113.471321 
	C131.484375,108.907646 136.173187,104.557259 141.310089,100.995384 
	C143.194626,99.688660 147.212540,100.041748 149.556030,101.137482 
	C153.307816,102.891685 153.857468,106.712311 152.465790,110.961838 
z"/>
</svg>