<?xml version="1.0" standalone="no"?>
<!DOCTYPE svg PUBLIC "-//W3C//DTD SVG 20010904//EN"
 "http://www.w3.org/TR/2001/REC-SVG-20010904/DTD/svg10.dtd">
<svg version="1.0" xmlns="http://www.w3.org/2000/svg"
 width="400.000000pt" height="400.000000pt" viewBox="0 0 400.000000 400.000000"
 preserveAspectRatio="xMidYMid meet">

<g transform="translate(0.000000,400.000000) scale(0.100000,-0.100000)"
fill="#000000" stroke="none">
<path d="M130 3992 c0 -9 -11 -11 -37 -7 -21 3 -31 2 -23 -2 8 -3 20 -13 26
-21 7 -9 36 -15 90 -18 43 -2 94 -6 112 -9 20 -2 32 1 32 8 0 8 3 7 9 -2 6 -9
15 -11 27 -6 27 11 97 5 114 -10 22 -19 99 -25 92 -7 -3 10 1 13 14 10 10 -2
18 -10 16 -17 -2 -10 10 -12 53 -9 64 5 73 11 54 35 -9 11 -10 14 -1 9 6 -4
12 -4 12 1 0 4 3 18 6 31 5 19 2 22 -19 22 -22 0 -26 -5 -29 -32 -2 -28 -7
-33 -28 -33 -20 0 -25 5 -27 25 -1 22 -1 22 4 3 3 -14 12 -23 24 -23 14 0 19
7 19 30 0 28 -2 30 -39 30 -39 0 -40 0 -31 -30 l9 -31 -43 2 c-23 2 -49 -1
-57 -6 -8 -5 -11 -4 -6 1 9 10 -124 29 -268 39 -51 4 -93 12 -97 18 -6 9 -8 9
-8 -1z"/>
<path d="M158 3993 c6 -2 18 -2 25 0 6 3 1 5 -13 5 -14 0 -19 -2 -12 -5z"/>
<path d="M230 3989 c0 -5 5 -7 10 -4 6 3 10 8 10 11 0 2 -4 4 -10 4 -5 0 -10
-5 -10 -11z"/>
<path d="M266 3990 c6 -6 21 -6 39 -1 30 9 30 9 -9 10 -26 1 -37 -2 -30 -9z"/>
<path d="M364 3985 c34 -18 33 -18 33 -2 0 7 -14 14 -31 15 l-31 2 29 -15z"/>
<path d="M457 3980 c3 -11 9 -20 13 -20 20 0 40 13 40 26 0 20 -18 17 -23 -3
-4 -17 -5 -17 -6 0 0 9 -7 17 -15 17 -9 0 -12 -7 -9 -20z"/>
<path d="M523 3983 c0 -12 4 -20 8 -17 4 2 10 0 14 -6 8 -13 45 -13 45 1 0 14
-25 39 -39 39 -6 0 -11 -6 -11 -12 0 -9 -3 -8 -10 2 -7 12 -9 10 -7 -7z"/>
<path d="M874 3991 c11 -18 -14 -61 -46 -81 -18 -11 -60 -22 -98 -26 -46 -4
-67 -10 -67 -20 0 -7 5 -10 11 -7 5 4 27 6 48 4 88 -5 168 47 168 110 0 16 -5
29 -11 29 -5 0 -8 -4 -5 -9z"/>
<path d="M1720 3990 c0 -5 5 -10 10 -10 6 0 10 5 10 10 0 6 -4 10 -10 10 -5 0
-10 -4 -10 -10z"/>
<path d="M2792 3984 c-12 -13 -10 -14 11 -10 14 2 28 1 32 -2 11 -11 29 -8 40
6 9 11 13 9 24 -10 14 -27 61 -64 61 -48 0 5 -5 10 -11 10 -6 0 -8 7 -5 16 3
8 2 13 -3 10 -4 -3 -16 3 -25 13 -13 15 -14 20 -4 24 7 3 -14 6 -47 6 -41 0
-64 -4 -73 -15z"/>
<path d="M3065 3990 c4 -6 11 -8 16 -5 5 3 6 -2 2 -11 -4 -12 -3 -15 5 -10 20
12 14 36 -9 36 -11 0 -17 -5 -14 -10z"/>
<path d="M3634 3985 c-4 -8 -10 -12 -15 -9 -5 3 -9 -15 -9 -40 l0 -46 25 22
c26 23 26 40 0 18 -14 -12 -14 -10 -5 16 6 15 16 34 22 41 7 9 7 13 -1 13 -6
0 -14 -7 -17 -15z"/>
<path d="M3679 3974 c-23 -25 -23 -26 -2 -13 13 7 25 19 27 26 8 19 2 16 -25
-13z"/>
<path d="M3795 3951 c0 -38 3 -48 15 -46 8 2 14 8 13 14 -2 6 2 11 7 11 6 0
10 -8 10 -17 0 -14 2 -15 9 -4 7 11 9 11 14 0 3 -8 6 10 6 39 l1 52 -37 0 -38
0 0 -49z"/>
<path d="M3955 3973 c3 -15 10 -30 14 -33 4 -3 13 -14 19 -25 11 -19 11 -18
12 8 0 15 -4 27 -9 27 -5 0 -12 11 -15 25 -4 14 -11 25 -17 25 -7 0 -9 -10 -4
-27z"/>
<path d="M3986 3985 c4 -8 8 -15 10 -15 2 0 4 7 4 15 0 8 -4 15 -10 15 -5 0
-7 -7 -4 -15z"/>
<path d="M0 3950 c0 -5 8 -10 19 -10 10 0 34 -2 52 -6 l34 -5 -34 15 c-38 18
-71 21 -71 6z"/>
<path d="M2700 3951 c0 -5 7 -12 16 -15 14 -5 15 -4 4 9 -14 17 -20 19 -20 6z"/>
<path d="M2754 3945 c-18 -14 -18 -14 5 -10 13 2 29 1 35 -3 6 -3 38 -7 70 -8
42 -1 55 1 43 8 -10 5 -26 7 -36 3 -11 -3 -22 -1 -26 5 -4 6 -16 8 -26 5 -11
-4 -26 -2 -33 4 -9 8 -18 7 -32 -4z"/>
<path d="M106 3911 c-8 -13 75 -81 99 -81 5 0 -5 10 -22 21 -18 12 -33 25 -33
29 0 5 -9 12 -20 15 -11 4 -18 11 -15 16 4 5 4 9 1 9 -3 0 -7 -4 -10 -9z"/>
<path d="M2496 3885 c-3 -8 -12 -15 -21 -15 -13 0 -14 -3 -3 -15 11 -12 15
-12 28 3 15 17 65 18 55 1 -4 -5 -2 -9 4 -9 5 0 11 6 13 12 3 7 7 2 11 -11 4
-17 2 -21 -8 -17 -8 3 -17 1 -20 -3 -8 -14 23 -21 50 -11 14 5 25 12 25 14 0
3 -7 3 -14 0 -10 -4 -20 6 -30 30 -13 31 -19 36 -49 36 -22 0 -37 -6 -41 -15z"/>
<path d="M3776 3853 c-23 -27 -34 -33 -53 -28 -17 4 -22 2 -18 -5 5 -7 20 -9
41 -5 21 3 34 2 34 -5 0 -15 30 -13 30 3 0 7 5 5 10 -5 8 -12 23 -16 67 -14
70 3 82 21 13 22 -27 0 -47 -3 -44 -8 4 -5 -3 -4 -15 4 -24 15 -22 34 3 30 9
-2 16 2 16 9 0 8 4 8 15 -1 13 -11 14 -10 9 3 -5 15 -20 22 -64 32 -8 2 -28
-12 -44 -32z m34 -13 c0 -11 -7 -20 -15 -20 -15 0 -21 21 -8 33 12 13 23 7 23
-13z"/>
<path d="M2461 3807 c-1 -43 3 -53 32 -82 36 -36 107 -61 141 -50 32 11 185
15 161 4 -12 -5 19 -6 78 -4 64 3 96 2 92 -5 -4 -6 6 -10 24 -10 16 0 35 -2
43 -5 7 -3 22 2 33 11 11 8 15 13 9 10 -7 -3 -11 4 -11 19 0 14 3 22 8 19 5
-3 9 4 9 16 0 13 9 24 25 30 16 6 23 15 19 24 -7 18 -42 17 -49 -2 -2 -7 0
-10 5 -7 6 3 10 1 10 -5 0 -8 -13 -10 -37 -6 -21 3 -53 7 -71 8 -21 2 -34 8
-38 20 -3 10 -15 18 -27 18 -22 -1 -22 -1 -2 -13 12 -7 20 -18 19 -24 -1 -7
-2 -17 -3 -22 -2 -16 -111 13 -111 30 0 5 -7 9 -16 9 -8 0 -12 -4 -9 -10 11
-17 -7 -11 -21 8 -11 14 -15 15 -23 3 -5 -8 -10 -9 -12 -2 -2 6 -37 13 -76 17
l-73 7 0 -32 c0 -19 4 -30 10 -26 6 3 10 -2 10 -12 0 -10 7 -29 16 -41 15 -22
15 -23 -13 -16 -52 13 -76 24 -109 53 -18 16 -31 31 -29 33 1 1 -1 21 -5 43
l-8 40 -1 -48z m225 -44 c-1 -16 3 -34 9 -42 8 -11 6 -13 -5 -9 -16 5 -25 40
-16 64 8 22 13 17 12 -13z m44 17 c0 -5 -4 -10 -9 -10 -6 0 -13 5 -16 10 -3 6
1 10 9 10 9 0 16 -4 16 -10z m253 -50 c4 -24 4 -24 6 3 1 20 6 27 21 27 16 0
20 -7 20 -34 0 -19 6 -37 13 -39 7 -3 5 -6 -5 -6 -14 -1 -18 7 -18 34 0 19 -5
35 -11 35 -8 0 -10 -12 -6 -35 5 -33 4 -34 -21 -29 -15 3 -40 6 -57 7 -24 2
-30 7 -32 27 -2 21 -1 22 5 6 9 -20 52 -33 52 -16 0 6 -6 10 -12 10 -7 0 -5 5
5 11 9 5 17 17 17 26 0 24 17 3 23 -27z m-137 3 c-1 -13 5 -17 19 -15 16 2 17
1 5 -7 -8 -6 -24 -10 -35 -10 -11 0 -14 3 -7 6 6 2 10 9 6 14 -3 5 -2 14 1 19
9 15 13 12 11 -7z m201 -5 c-3 -8 -6 -5 -6 6 -1 11 2 17 5 13 3 -3 4 -12 1
-19z m-387 -4 c0 -2 -7 -4 -15 -4 -8 0 -15 4 -15 10 0 5 7 7 15 4 8 -4 15 -8
15 -10z m80 -10 c0 -2 -7 -4 -15 -4 -8 0 -15 4 -15 10 0 5 7 7 15 4 8 -4 15
-8 15 -10z m35 -4 c3 -6 -1 -7 -9 -4 -18 7 -21 14 -7 14 6 0 13 -4 16 -10z
m30 0 c3 -5 1 -10 -4 -10 -6 0 -11 5 -11 10 0 6 2 10 4 10 3 0 8 -4 11 -10z"/>
<path d="M3115 3826 c-18 -13 -18 -14 5 -21 31 -10 50 -29 50 -50 0 -9 7 -23
15 -31 11 -12 12 -20 5 -34 -14 -27 -45 -41 -104 -50 l-51 -8 47 -1 c26 0 58
4 71 10 69 31 76 158 10 188 -29 14 -25 14 -48 -3z"/>
<path d="M234 3821 c-16 -11 -10 -25 32 -70 26 -27 47 -42 59 -40 15 3 9 13
-33 57 -28 28 -43 48 -33 42 10 -5 36 -30 58 -56 28 -31 47 -45 59 -42 11 2
18 10 16 16 -1 7 2 12 8 12 6 0 10 -7 10 -15 0 -8 5 -15 11 -15 6 0 9 6 6 13
-3 8 -2 19 3 26 4 8 9 2 13 -18 9 -41 30 -40 72 5 26 27 30 37 19 41 -8 3 -23
-2 -33 -11 -19 -17 -39 -7 -26 13 3 5 0 13 -6 17 -8 4 -9 3 -5 -5 6 -9 -7 -11
-51 -8 -32 2 -66 7 -75 11 -9 4 -22 5 -28 1 -5 -3 -10 -2 -10 3 0 13 -54 32
-66 23z m146 -87 c0 -8 -5 -12 -10 -9 -6 4 -8 11 -5 16 9 14 15 11 15 -7z"/>
<path d="M325 3810 c27 -12 43 -12 25 0 -8 5 -22 9 -30 9 -10 0 -8 -3 5 -9z"/>
<path d="M2780 3806 c4 -4 21 -4 37 2 28 11 28 11 -9 9 -21 -1 -33 -6 -28 -11z"/>
<path d="M390 3806 c0 -2 7 -7 16 -10 8 -3 12 -2 9 4 -6 10 -25 14 -25 6z"/>
<path d="M512 3801 c-19 -12 38 -22 58 -10 13 7 13 8 -2 9 -9 0 -22 2 -30 5
-7 3 -19 1 -26 -4z"/>
<path d="M2866 3782 c-3 -5 1 -9 9 -9 8 0 12 4 9 9 -3 4 -7 8 -9 8 -2 0 -6 -4
-9 -8z"/>
<path d="M2900 3770 c0 -5 5 -10 10 -10 6 0 10 5 10 10 0 6 -4 10 -10 10 -5 0
-10 -4 -10 -10z"/>
<path d="M3508 3757 c-18 -15 -28 -32 -28 -50 0 -41 25 -94 52 -109 36 -20 96
-36 105 -28 14 13 101 22 108 10 3 -5 14 -10 23 -10 15 0 15 2 2 10 -13 8 -12
10 3 10 9 0 17 -4 17 -9 0 -5 12 -9 28 -9 38 1 133 -10 160 -18 16 -5 22 -2
22 9 0 8 -6 18 -12 20 -10 4 -10 6 0 6 6 1 12 10 12 20 0 11 -6 22 -12 24 -10
4 -10 6 0 6 18 1 15 21 -4 21 -12 0 -15 -7 -12 -25 3 -13 1 -22 -3 -19 -5 3
-9 13 -9 24 0 18 -19 30 -48 30 -15 0 -15 -2 -2 -10 8 -5 10 -10 5 -10 -6 0
-20 7 -32 15 -28 20 -118 18 -102 -2 8 -9 8 -13 0 -13 -6 0 -11 5 -11 11 0 5
-4 7 -10 4 -6 -3 -7 1 -4 9 5 13 -2 16 -32 17 -34 1 -36 2 -14 9 20 7 16 8
-22 9 -45 1 -48 -1 -48 -25 0 -43 -24 -21 -25 23 -1 23 -7 48 -14 57 -19 23
-61 19 -93 -7z m62 -28 c0 -11 7 -22 15 -25 8 -4 15 -17 15 -31 0 -13 4 -22 9
-18 5 3 9 -8 9 -23 -1 -16 3 -35 7 -42 6 -9 1 -10 -16 -5 -65 20 -110 62 -108
102 0 16 1 16 10 -2 7 -17 9 -16 8 10 -2 48 0 57 11 50 6 -3 10 -2 10 4 0 6 7
8 15 5 8 -4 15 -15 15 -25z m27 6 c0 -8 -4 -12 -9 -9 -4 3 -8 9 -8 15 0 5 4 9
8 9 5 0 9 -7 9 -15z m129 -94 c4 -29 2 -31 -26 -31 -17 0 -30 4 -30 9 0 5 -9
7 -20 4 -14 -4 -20 0 -20 12 0 12 6 16 20 12 15 -4 20 0 20 13 0 14 6 18 26
16 22 -2 28 -9 30 -35z m104 15 c0 -3 -4 -8 -10 -11 -5 -3 -10 -1 -10 4 0 6 5
11 10 11 6 0 10 -2 10 -4z m118 -21 c-3 -3 -9 2 -12 12 -6 14 -5 15 5 6 7 -7
10 -15 7 -18z m-288 -35 c13 -8 13 -10 -2 -10 -9 0 -20 5 -23 10 -8 13 5 13
25 0z m225 0 c3 -5 1 -10 -4 -10 -6 0 -11 5 -11 10 0 6 2 10 4 10 3 0 8 -4 11
-10z"/>
<path d="M3680 3653 c0 -7 6 -13 14 -13 8 0 16 6 19 13 3 8 -3 13 -14 13 -11
0 -19 -6 -19 -13z"/>
<path d="M322 3693 c9 -2 15 -10 12 -18 -4 -10 0 -12 15 -8 15 4 21 1 21 -11
0 -9 -3 -16 -7 -16 -5 0 -8 -17 -8 -39 -1 -28 3 -37 12 -34 8 3 13 -3 14 -13
1 -14 3 -13 9 6 7 23 8 23 9 3 1 -12 5 -25 11 -28 6 -4 7 1 3 11 -4 12 -3 15
6 10 9 -6 12 2 11 30 -3 64 -1 71 23 78 l22 7 -24 10 c-13 5 -38 9 -55 8 -17
-1 -44 1 -61 4 -16 2 -22 2 -13 0z m98 -37 c0 -3 -4 -8 -10 -11 -5 -3 -10 -1
-10 4 0 6 5 11 10 11 6 0 10 -2 10 -4z"/>
<path d="M3880 3690 c0 -5 9 -10 21 -10 11 0 17 5 14 10 -3 6 -13 10 -21 10
-8 0 -14 -4 -14 -10z"/>
<path d="M796 3669 c6 -11 31 -12 37 -1 3 4 -6 8 -19 8 -13 1 -21 -2 -18 -7z"/>
<path d="M2630 3651 c0 -4 11 -18 25 -31 l25 -23 -13 26 c-12 26 -37 45 -37
28z"/>
<path d="M180 3599 c0 -5 4 -8 9 -4 5 3 13 0 16 -5 12 -19 55 -31 73 -20 13 7
9 9 -19 10 -20 0 -42 7 -49 15 -14 17 -30 20 -30 4z"/>
<path d="M572 3570 c-6 -10 -24 -20 -39 -23 -28 -4 -28 -4 -2 -6 24 -1 69 33
58 44 -3 2 -10 -4 -17 -15z"/>
<path d="M830 3576 c0 -9 30 -14 35 -6 4 6 -3 10 -14 10 -12 0 -21 -2 -21 -4z"/>
<path d="M2733 3528 c27 -34 36 -39 67 -37 20 2 41 0 48 -5 7 -4 12 -2 12 7 0
18 28 42 37 33 4 -4 2 -16 -5 -26 -18 -29 3 -24 22 5 20 30 20 36 1 29 -8 -4
-15 -1 -15 6 0 7 -8 9 -19 5 -11 -3 -23 0 -27 6 -5 8 -3 9 6 4 9 -5 11 -4 6 3
-4 8 -14 9 -24 4 -18 -9 -66 -8 -92 1 -43 15 -48 4 -17 -35z m62 -18 c3 -5 1
-10 -4 -10 -6 0 -11 5 -11 10 0 6 2 10 4 10 3 0 8 -4 11 -10z"/>
<path d="M3630 3546 c0 -2 8 -10 18 -17 15 -13 16 -12 3 4 -13 16 -21 21 -21
13z"/>
<path d="M1420 3536 c0 -16 83 -35 207 -48 6 -1 14 -12 17 -25 4 -14 17 -25
33 -29 25 -7 37 2 61 43 5 9 31 10 102 3 87 -8 110 -7 99 4 -2 3 -40 14 -84
27 -64 17 -116 23 -257 26 -98 3 -178 2 -178 -1z m300 -55 c0 -22 -23 -34 -38
-19 -15 15 -3 38 19 38 12 0 19 -7 19 -19z"/>
<path d="M3986 3523 c-6 -14 -5 -15 5 -6 7 7 10 15 7 18 -3 3 -9 -2 -12 -12z"/>
<path d="M116 3515 c-11 -8 -15 -15 -9 -15 6 0 16 7 23 15 16 19 11 19 -14 0z"/>
<path d="M345 3510 c-3 -5 7 -12 22 -16 15 -3 33 -7 40 -9 6 -2 14 2 16 9 3 8
-4 11 -24 8 -17 -3 -29 0 -29 7 0 14 -17 15 -25 1z"/>
<path d="M2508 3513 c7 -3 16 -2 19 1 4 3 -2 6 -13 5 -11 0 -14 -3 -6 -6z"/>
<path d="M640 3485 c13 -14 26 -25 28 -25 3 0 -5 11 -18 25 -13 14 -26 25 -28
25 -3 0 5 -11 18 -25z"/>
<path d="M4 3493 c7 -7 77 -5 85 2 2 3 -17 5 -44 5 -27 0 -45 -3 -41 -7z"/>
<path d="M3771 3468 c-9 -15 -13 -16 -38 -3 -15 8 -29 12 -31 10 -8 -7 25 -34
33 -27 5 4 5 -1 2 -10 -9 -24 9 -32 23 -11 11 17 11 17 6 1 -3 -10 -4 -18 -2
-18 3 0 11 -3 20 -6 12 -4 16 0 16 15 0 12 5 21 10 21 6 0 10 -9 10 -20 0 -30
41 -25 74 9 22 23 25 29 12 34 -11 4 -16 1 -17 -11 0 -13 -3 -12 -11 6 -10 21
-48 32 -48 14 0 -5 -7 -9 -15 -9 -10 0 -12 4 -5 12 6 7 3 11 -9 11 -11 0 -24
-8 -30 -18z m89 -2 c0 -3 -4 -8 -10 -11 -5 -3 -10 -1 -10 4 0 6 5 11 10 11 6
0 10 -2 10 -4z"/>
<path d="M2770 3470 c0 -6 4 -10 9 -10 12 0 20 -59 8 -63 -6 -2 -7 -15 -3 -31
6 -23 9 -26 21 -16 14 11 19 7 16 -12 0 -4 6 -5 14 -2 8 4 13 10 10 14 -3 4 2
10 10 14 8 3 15 13 14 23 0 16 -1 16 -9 -2 -7 -15 -9 -10 -9 23 -1 23 2 41 7
41 4 -1 15 -1 25 0 25 2 21 17 -5 17 -13 1 -42 4 -65 7 -26 4 -43 2 -43 -3z"/>
<path d="M201 3444 c46 -23 379 -45 379 -24 0 6 -3 10 -7 10 -5 0 -53 7 -108
15 -55 9 -143 15 -195 14 -85 -1 -92 -3 -69 -15z"/>
<path d="M703 3446 c25 -19 99 -29 128 -17 21 9 20 10 -11 5 -19 -3 -57 2 -85
10 -39 12 -46 12 -32 2z"/>
<path d="M2468 3438 c5 -5 16 -8 23 -6 8 3 3 7 -10 11 -17 4 -21 3 -13 -5z"/>
<path d="M3507 3429 c7 -7 15 -10 18 -7 3 3 -2 9 -12 12 -14 6 -15 5 -6 -5z"/>
<path d="M23 3393 c15 -2 39 -2 55 0 15 2 2 4 -28 4 -30 0 -43 -2 -27 -4z"/>
<path d="M3754 3377 c8 -12 18 -48 21 -79 7 -52 5 -58 -11 -58 -35 0 -3 -13
42 -17 31 -3 44 0 39 7 -4 6 -13 9 -20 6 -18 -7 -35 14 -35 44 1 25 1 25 15
-5 l13 -30 2 40 c2 39 3 39 10 10 7 -26 8 -22 9 23 1 32 5 52 13 52 29 0 -5
12 -44 16 -24 2 -49 6 -56 9 -9 3 -8 -2 2 -18z m44 -38 c-3 -8 -7 -3 -11 10
-4 17 -3 21 5 13 5 -5 8 -16 6 -23z"/>
<path d="M138 3383 c17 -2 47 -2 65 0 17 2 3 4 -33 4 -36 0 -50 -2 -32 -4z"/>
<path d="M338 3373 c12 -2 32 -2 45 0 12 2 2 4 -23 4 -25 0 -35 -2 -22 -4z"/>
<path d="M2420 3372 c0 -19 58 -72 78 -72 11 0 6 7 -14 19 -18 11 -39 30 -48
42 -9 13 -16 18 -16 11z"/>
<path d="M2710 3370 c8 -5 20 -10 25 -10 6 0 3 5 -5 10 -8 5 -19 10 -25 10 -5
0 -3 -5 5 -10z"/>
<path d="M2890 3371 c0 -13 39 -35 48 -27 3 3 0 6 -6 6 -6 0 -18 7 -26 16 -9
8 -16 11 -16 5z"/>
<path d="M453 3363 c15 -2 37 -2 50 0 12 2 0 4 -28 4 -27 0 -38 -2 -22 -4z"/>
<path d="M558 3353 c12 -2 32 -2 45 0 12 2 2 4 -23 4 -25 0 -35 -2 -22 -4z"/>
<path d="M2980 3357 c-1 -30 58 -98 85 -97 5 1 -2 7 -17 16 -15 8 -37 31 -47
52 -11 20 -20 33 -21 29z"/>
<path d="M3487 3349 c7 -7 15 -10 18 -7 3 3 -2 9 -12 12 -14 6 -15 5 -6 -5z"/>
<path d="M678 3343 c12 -2 30 -2 40 0 9 3 -1 5 -23 4 -22 0 -30 -2 -17 -4z"/>
<path d="M843 3333 c15 -2 39 -2 55 0 15 2 2 4 -28 4 -30 0 -43 -2 -27 -4z"/>
<path d="M958 3323 c12 -2 30 -2 40 0 9 3 -1 5 -23 4 -22 0 -30 -2 -17 -4z"/>
<path d="M2800 3309 c0 -5 -8 -6 -17 -3 -13 4 -14 3 -5 -3 11 -8 72 -6 72 2 0
1 -11 5 -25 7 -14 3 -25 1 -25 -3z"/>
<path d="M3680 3310 c0 -5 10 -15 23 -21 22 -12 22 -12 3 10 -21 23 -26 26
-26 11z"/>
<path d="M2533 3293 c9 -2 25 -2 35 0 9 3 1 5 -18 5 -19 0 -27 -2 -17 -5z"/>
<path d="M2672 3288 c-15 -15 -15 -28 0 -28 6 0 8 3 5 7 -4 3 -2 12 4 20 14
16 7 17 -9 1z"/>
<path d="M3868 3278 c6 -6 18 -8 28 -6 14 3 12 5 -9 10 -19 3 -25 2 -19 -4z"/>
<path d="M2700 3263 c0 -10 153 -24 240 -22 40 1 42 2 18 9 -44 13 -258 24
-258 13z"/>
<path d="M3460 3266 c0 -2 8 -10 18 -17 15 -13 16 -12 3 4 -13 16 -21 21 -21
13z"/>
<path d="M3940 3255 c0 -8 4 -15 10 -15 5 0 7 7 4 15 -4 8 -8 15 -10 15 -2 0
-4 -7 -4 -15z"/>
<path d="M7 3233 c7 -2 19 -2 26 0 6 3 1 5 -13 5 -14 0 -19 -2 -13 -5z"/>
<path d="M143 3223 c9 -2 23 -2 30 0 6 3 -1 5 -18 5 -16 0 -22 -2 -12 -5z"/>
<path d="M2348 3223 c6 -2 18 -2 25 0 6 3 1 5 -13 5 -14 0 -19 -2 -12 -5z"/>
<path d="M2408 3223 c7 -3 16 -2 19 1 4 3 -2 6 -13 5 -11 0 -14 -3 -6 -6z"/>
<path d="M3508 3223 c6 -2 18 -2 25 0 6 3 1 5 -13 5 -14 0 -19 -2 -12 -5z"/>
<path d="M3598 3223 c7 -3 16 -2 19 1 4 3 -2 6 -13 5 -11 0 -14 -3 -6 -6z"/>
<path d="M358 3213 c7 -3 16 -2 19 1 4 3 -2 6 -13 5 -11 0 -14 -3 -6 -6z"/>
<path d="M2588 3213 c12 -2 32 -2 45 0 12 2 2 4 -23 4 -25 0 -35 -2 -22 -4z"/>
<path d="M2669 3207 c5 -5 30 -7 57 -5 l49 3 -57 5 c-31 3 -53 1 -49 -3z"/>
<path d="M3975 3210 c3 -5 11 -10 16 -10 6 0 7 5 4 10 -3 6 -11 10 -16 10 -6
0 -7 -4 -4 -10z"/>
<path d="M493 3203 c9 -2 25 -2 35 0 9 3 1 5 -18 5 -19 0 -27 -2 -17 -5z"/>
<path d="M573 3193 c15 -2 39 -2 55 0 15 2 2 4 -28 4 -30 0 -43 -2 -27 -4z"/>
<path d="M2848 3193 c12 -2 32 -2 45 0 12 2 2 4 -23 4 -25 0 -35 -2 -22 -4z"/>
<path d="M3680 3191 c-11 -8 14 -11 90 -11 58 0 116 -3 130 -6 23 -5 24 -4 5
7 -25 16 -205 24 -225 10z"/>
<path d="M708 3183 c12 -2 32 -2 45 0 12 2 2 4 -23 4 -25 0 -35 -2 -22 -4z"/>
<path d="M2993 3183 c15 -2 37 -2 50 0 12 2 0 4 -28 4 -27 0 -38 -2 -22 -4z"/>
<path d="M858 3173 c12 -2 32 -2 45 0 12 2 2 4 -23 4 -25 0 -35 -2 -22 -4z"/>
<path d="M965 3170 c4 -6 11 -8 16 -5 14 9 11 15 -7 15 -8 0 -12 -5 -9 -10z"/>
<path d="M3193 3173 c9 -2 23 -2 30 0 6 3 -1 5 -18 5 -16 0 -22 -2 -12 -5z"/>
<path d="M3248 3173 c7 -3 16 -2 19 1 4 3 -2 6 -13 5 -11 0 -14 -3 -6 -6z"/>
<path d="M3370 3156 c0 -2 9 -6 20 -9 11 -3 18 -1 14 4 -5 9 -34 13 -34 5z"/>
<path d="M1071 3134 c0 -11 3 -14 6 -6 3 7 2 16 -1 19 -3 4 -6 -2 -5 -13z"/>
<path d="M3528 3143 c12 -2 30 -2 40 0 9 3 -1 5 -23 4 -22 0 -30 -2 -17 -4z"/>
<path d="M3711 3136 c7 -8 98 -10 105 -3 4 4 -19 7 -51 7 -32 0 -56 -2 -54 -4z"/>
<path d="M3831 3126 c2 -2 42 -6 89 -9 48 -3 74 -1 60 3 -25 8 -157 13 -149 6z"/>
<path d="M2040 3085 c-14 -8 -55 -17 -92 -21 -45 -4 -68 -11 -68 -19 0 -22
-49 -28 -215 -27 -115 0 -147 -2 -113 -8 26 -4 52 -11 57 -15 6 -3 11 0 11 7
1 8 6 6 15 -6 13 -17 15 -18 15 -3 0 24 68 24 77 0 6 -15 7 -15 14 3 7 17 8
17 8 1 1 -9 -8 -25 -18 -34 -11 -9 -17 -22 -14 -29 3 -8 1 -14 -5 -14 -5 0 -9
-6 -9 -12 1 -7 -2 -29 -7 -49 -4 -21 -4 -61 1 -90 7 -46 12 -53 28 -51 17 3
16 1 -5 -16 -23 -18 -23 -22 -12 -61 10 -33 10 -44 0 -55 -11 -12 -17 -12 -43
1 -16 9 -33 21 -37 27 -4 6 -10 7 -14 4 -3 -4 5 -17 18 -30 14 -13 31 -41 39
-63 l13 -40 7 38 c3 21 13 46 22 54 15 15 17 14 28 -13 6 -17 13 -24 16 -16 3
7 0 19 -7 27 -6 8 -8 20 -4 26 4 7 3 9 -4 5 -14 -8 -25 28 -17 54 7 22 13 24
35 10 13 -8 12 -10 -2 -10 -11 0 -18 -8 -18 -21 0 -12 4 -17 11 -13 6 4 9 -1
8 -12 -2 -11 3 -29 10 -42 7 -13 10 -30 7 -38 -3 -8 -1 -14 4 -14 6 0 10 -11
10 -25 0 -14 4 -25 9 -25 10 0 26 -57 22 -77 -1 -7 3 -13 9 -13 5 0 10 -5 10
-11 0 -5 -6 -7 -12 -3 -7 4 -3 -4 8 -17 12 -13 19 -31 17 -39 -4 -13 -3 -13 6
0 8 12 11 12 17 -3 4 -10 12 -16 19 -13 16 6 38 -9 41 -28 1 -9 -2 -14 -7 -10
-5 3 -7 9 -5 13 3 4 -1 8 -8 8 -25 0 6 -36 46 -54 20 -9 35 -20 32 -25 -9 -14
13 -9 26 7 7 8 19 15 26 15 8 0 14 7 14 15 0 8 -5 15 -11 15 -18 0 18 30 55
45 19 8 37 20 40 27 3 7 3 -5 0 -27 -4 -22 -12 -50 -20 -62 -21 -33 -67 -73
-84 -73 -13 0 -13 -1 0 -10 10 -7 11 -10 2 -10 -7 0 -15 6 -17 13 -3 6 -24 13
-48 14 -41 1 -41 1 -16 -12 42 -22 80 -25 112 -9 31 16 46 8 47 -23 0 -20 -61
-196 -76 -221 -19 -29 -34 -20 -34 19 0 17 -6 42 -14 57 -17 33 -102 122 -116
122 -6 0 -15 12 -20 26 -6 14 -14 22 -20 19 -5 -3 -10 2 -10 12 0 11 -6 25
-12 32 -10 11 -8 10 12 0 14 -8 28 -18 32 -24 5 -6 8 -5 8 3 0 7 -7 15 -16 19
-13 5 -13 7 -2 14 10 7 8 9 -6 9 -11 0 -16 3 -13 6 4 4 -5 20 -18 36 -24 28
-36 98 -17 98 5 0 7 13 4 29 -3 25 -8 28 -40 27 -35 -1 -37 1 -34 27 2 15 -1
27 -6 27 -6 0 -8 9 -5 20 3 11 0 20 -6 20 -6 0 -11 -4 -11 -10 0 -5 -8 -10
-17 -10 -16 0 -15 -1 1 -13 16 -11 23 -31 25 -65 1 -7 6 -10 11 -7 6 3 10 1
10 -4 0 -6 -4 -11 -9 -11 -5 0 -12 -15 -16 -32 l-8 -33 -6 30 c-5 24 -8 26
-13 13 -10 -24 -23 -22 -36 5 -10 20 -11 19 -5 -8 8 -36 23 -53 43 -47 8 2 0
-7 -19 -22 -19 -14 -41 -26 -49 -26 -18 0 -235 -103 -272 -130 -91 -64 -142
-376 -104 -630 12 -88 16 -173 15 -358 l-2 -242 48 1 c32 2 38 3 19 6 -53 8
-56 18 -55 190 1 156 1 157 15 103 8 -30 16 -73 19 -94 2 -22 13 -52 25 -67
11 -16 20 -36 20 -46 0 -10 7 -31 15 -47 18 -34 19 -50 3 -40 -7 4 -8 3 -4 -4
4 -6 0 -39 -8 -74 -21 -86 -46 -265 -46 -323 0 -38 -3 -46 -15 -41 -8 3 -15 1
-15 -4 0 -6 6 -10 13 -10 12 0 40 -119 58 -245 5 -33 18 -89 29 -125 11 -36
20 -66 20 -67 0 -1 -12 0 -27 3 -21 3 -24 2 -13 -5 9 -7 238 -11 618 -11 l602
0 0 27 c-1 16 -5 60 -11 98 -5 39 -14 128 -19 200 -19 266 -30 325 -45 254 -9
-39 -42 -109 -53 -110 -70 -7 -94 -7 -77 0 11 5 23 7 27 5 4 -3 9 0 13 5 3 6
11 8 19 5 7 -3 13 2 13 10 0 8 -4 13 -9 10 -4 -3 -8 2 -8 10 0 8 8 20 18 25 9
6 12 11 5 11 -6 0 -13 6 -16 12 -2 7 -3 5 -1 -5 1 -10 -3 -16 -9 -14 -7 2 -12
13 -11 25 0 12 -3 19 -7 17 -11 -8 -21 27 -10 38 5 5 7 16 4 23 -4 10 0 12 12
8 13 -5 16 -3 13 7 -6 14 -11 15 -39 4 -11 -4 -18 1 -22 15 -5 19 -2 21 21 17
30 -6 92 16 92 32 0 6 -4 11 -10 11 -5 0 -10 10 -9 23 0 21 1 21 9 2 13 -30
12 -1 -1 32 -6 15 -11 42 -10 60 0 18 -4 35 -8 38 -10 6 -2 45 9 45 14 0 32
59 28 90 -4 29 -3 30 32 30 36 0 54 10 80 43 12 16 10 21 -14 41 l-28 22 39
41 39 41 23 -34 c13 -19 27 -34 32 -34 5 0 9 -5 9 -12 0 -6 9 -21 19 -32 27
-30 36 -80 17 -96 -9 -7 -13 -17 -10 -22 4 -6 -2 -8 -15 -3 -11 3 -21 2 -21
-3 0 -5 16 -9 35 -9 19 0 32 4 29 8 -2 4 4 24 15 44 10 20 17 44 14 53 -2 11
6 29 21 43 13 14 26 31 28 38 2 8 19 29 38 47 27 26 31 34 17 34 -10 0 -16 -4
-13 -9 8 -12 -39 -31 -54 -21 -10 6 -6 9 11 13 13 2 2 5 -24 6 -34 1 -49 -3
-53 -14 -5 -11 -11 -12 -24 -5 -10 6 -32 10 -48 10 -24 0 -29 4 -25 18 2 10
-3 24 -11 31 -9 8 -16 22 -16 32 0 15 4 17 23 10 12 -5 31 -5 42 -1 11 4 78 7
148 8 113 1 128 -1 123 -15 -6 -13 -4 -14 9 -3 13 11 13 15 3 22 -8 5 -9 11
-3 16 6 4 11 13 13 21 15 69 15 71 -7 71 -11 0 -21 5 -21 11 0 5 -10 3 -22 -5
-12 -9 -30 -16 -40 -16 -10 0 -18 -5 -18 -12 0 -6 -6 -4 -13 6 -12 16 -15 16
-28 4 -12 -13 -17 -13 -27 -1 -9 8 -38 13 -87 13 l-75 0 0 -36 c0 -25 4 -33
13 -28 9 5 9 4 0 -6 -6 -7 -9 -20 -6 -29 4 -9 3 -13 -1 -10 -4 4 -9 19 -12 35
-3 16 -10 34 -16 41 -6 8 -6 13 -1 13 5 0 10 8 10 18 1 31 -18 106 -28 113 -6
3 -12 25 -12 48 -1 22 -5 41 -8 41 -3 0 -5 11 -4 25 2 14 -1 25 -5 25 -9 0 -4
-85 6 -101 3 -5 -1 -9 -9 -9 -10 0 -13 7 -10 18 3 12 -3 22 -19 29 -19 10 -20
12 -4 12 14 1 17 7 13 27 -3 20 0 28 14 31 10 3 17 8 15 12 -3 4 -1 13 5 21 6
11 9 0 10 -35 0 -27 3 -43 6 -35 3 8 15 25 26 37 11 13 17 29 13 38 -3 9 -2
13 4 10 6 -3 10 0 10 8 0 12 7 13 34 7 19 -4 37 -5 40 -2 3 2 4 -13 2 -34 -2
-22 2 -46 8 -54 5 -8 6 -12 2 -8 -11 10 -39 -28 -31 -42 6 -10 -29 -33 -38
-24 -3 3 -4 -3 -4 -13 2 -13 -4 -17 -21 -16 -15 2 -21 -1 -16 -8 4 -7 20 -9
40 -6 21 4 37 1 44 -9 9 -9 17 -11 30 -4 9 5 19 7 22 5 3 -3 22 1 44 9 36 13
37 15 12 15 -24 1 -28 5 -27 29 0 15 3 21 6 14 2 -6 9 -10 14 -6 5 3 9 0 9 -7
0 -8 3 -9 13 0 8 6 18 7 23 3 5 -4 1 2 -8 14 -14 15 -26 19 -54 16 -25 -3 -35
-1 -30 6 4 6 13 9 20 6 8 -3 17 0 22 7 5 8 3 10 -7 4 -8 -5 -5 2 6 15 18 21
18 23 2 17 -10 -4 -16 -3 -12 3 3 5 -4 14 -15 20 -26 14 -26 25 2 27 11 1 24
6 27 11 3 5 23 12 44 16 48 9 50 31 2 23 -21 -3 -33 -2 -30 4 4 5 -5 9 -19 9
-15 0 -26 -6 -28 -17 -3 -16 -4 -16 -20 0 -21 21 -28 21 -28 2 0 -13 -4 -14
-20 -5 -11 6 -31 8 -45 6 -14 -3 -23 -1 -20 5 4 5 22 9 41 9 19 0 34 5 34 11
0 5 5 7 10 4 23 -14 8 18 -21 44 -22 21 -27 31 -18 36 7 5 10 4 6 -1 -3 -6 9
-8 29 -6 31 4 34 2 35 -24 2 -26 2 -26 6 -5 6 32 -6 41 -59 43 -26 1 -44 6
-41 12 4 5 1 6 -6 2 -7 -5 -19 0 -27 10 -9 11 -13 13 -9 4 4 -10 2 -9 -8 2 -8
10 -18 14 -23 10 -4 -4 -2 1 5 10 7 10 16 16 19 15 10 -3 11 9 4 35 l-6 23 -6
-25 c-4 -16 -14 -26 -28 -28 -18 -3 -26 5 -42 42 -10 25 -24 46 -30 46 -6 0
-8 5 -5 10 3 6 2 10 -4 10 -5 0 -11 -6 -14 -12 -2 -7 -8 -10 -12 -6 -4 4 -2
14 5 23 10 12 9 16 -4 21 -15 6 -14 10 10 35 15 16 34 29 42 29 12 0 12 3 2
15 -18 21 -64 19 -85 -5 -19 -21 -19 -21 11 -5 16 8 38 15 49 15 16 -1 13 -7
-20 -38 -22 -20 -39 -42 -37 -49 1 -6 -1 -14 -6 -17 -5 -3 -8 6 -6 19 3 33
-40 56 -107 56 -12 1 -15 11 -14 52 1 29 0 36 -2 16 -4 -32 -8 -37 -34 -41
-25 -4 -33 0 -45 23 -8 15 -20 32 -26 36 -21 13 -49 71 -39 77 5 4 12 -4 14
-16 3 -16 5 -12 6 11 0 19 7 42 15 50 35 40 91 168 91 208 0 22 3 39 6 37 17
-10 34 56 34 135 0 89 -3 99 -63 190 -31 48 -90 96 -134 110 -21 7 -38 17 -38
22 0 13 -31 10 -60 -6z m-91 -279 c7 -8 28 -16 49 -19 115 -16 204 -49 225
-84 5 -7 12 -11 18 -8 5 4 9 -1 9 -10 0 -14 -2 -14 -24 0 -24 16 -107 17 -122
2 -10 -10 -48 -9 -59 1 -6 5 -35 14 -67 21 -48 10 -62 10 -94 -4 -20 -8 -39
-13 -42 -10 -8 8 19 35 29 29 5 -3 9 2 9 10 0 9 9 25 20 36 11 11 17 26 14 35
-8 19 19 20 35 1z m-76 -123 c-10 -3 -10 -10 -2 -24 5 -11 14 -17 18 -14 5 3
11 -1 14 -9 7 -17 54 -26 81 -17 12 4 28 6 37 4 15 -4 15 -7 2 -34 -8 -16 -26
-32 -41 -36 -14 -3 -37 -12 -51 -19 -55 -29 -111 -8 -116 43 -1 15 -6 36 -10
45 -9 23 11 56 37 61 32 6 45 6 31 0z m62 -32 c3 -5 2 -12 -3 -15 -5 -3 -9 1
-9 9 0 17 3 19 12 6z m323 -63 c0 -45 -5 -85 -14 -103 -8 -16 -12 -22 -9 -12
2 10 -1 17 -10 17 -8 0 -26 11 -41 25 -15 14 -30 25 -35 25 -13 0 -22 -22 -12
-29 10 -7 11 -31 1 -31 -5 0 -12 0 -18 0 -5 0 -10 6 -10 14 0 11 -9 13 -34 9
-19 -3 -36 -1 -40 6 -4 6 -16 11 -27 11 -22 0 -25 15 -6 27 24 15 56 64 50 79
-3 9 2 14 16 14 17 0 21 -6 21 -29 0 -35 16 -49 23 -21 4 16 9 18 36 10 31 -9
55 5 33 19 -7 4 -8 12 -2 21 8 13 10 12 10 -2 0 -11 7 -16 20 -15 12 1 18 7
16 14 -3 6 3 14 12 16 9 3 17 5 18 6 0 0 1 -32 2 -71z m-580 -39 c-3 -8 -7 -3
-11 10 -4 17 -3 21 5 13 5 -5 8 -16 6 -23z m305 -29 c4 -17 0 -20 -26 -20
l-32 0 25 20 c14 11 26 20 26 20 1 0 4 -9 7 -20z m199 -92 c-6 -6 -7 0 -4 19
5 21 7 23 10 9 2 -10 0 -22 -6 -28z m-115 26 c-3 -3 -12 -4 -19 -1 -8 3 -5 6
6 6 11 1 17 -2 13 -5z m60 0 c-3 -3 -12 -4 -19 -1 -8 3 -5 6 6 6 11 1 17 -2
13 -5z m-33 -18 c53 -1 66 -14 41 -39 -8 -9 -15 -20 -15 -26 0 -6 -8 -11 -17
-12 -10 0 -30 -2 -46 -4 -15 -2 -25 0 -22 6 4 5 -10 9 -30 9 -28 0 -38 5 -42
20 -3 11 -9 17 -14 14 -11 -6 -12 29 -2 40 4 3 27 3 52 0 26 -4 68 -8 95 -8z
m-367 -128 c-3 -7 -5 -2 -5 12 0 14 2 19 5 13 2 -7 2 -19 0 -25z m10 -40 c-3
-8 -6 -5 -6 6 -1 11 2 17 5 13 3 -3 4 -12 1 -19z m-40 -90 c-3 -8 -6 -5 -6 6
-1 11 2 17 5 13 3 -3 4 -12 1 -19z m439 -24 c-4 -9 -9 -15 -11 -12 -3 3 -3 13
1 22 4 9 9 15 11 12 3 -3 3 -13 -1 -22z m-657 -34 c0 -9 -4 -8 -9 5 -5 11 -9
27 -9 35 0 9 4 8 9 -5 5 -11 9 -27 9 -35z m898 -7 c-3 -10 -5 -4 -5 12 0 17 2
24 5 18 2 -7 2 -21 0 -30z m-1024 -19 c-3 -9 -9 -12 -12 -7 -3 4 -10 11 -15
16 -5 4 0 7 12 7 15 0 20 -4 15 -16z m145 -54 c0 -9 -3 -7 -8 5 -5 11 -8 29
-8 40 0 16 2 15 8 -5 4 -14 8 -32 8 -40z m219 28 c-3 -8 -6 -5 -6 6 -1 11 2
17 5 13 3 -3 4 -12 1 -19z m440 -10 c-3 -8 -6 -5 -6 6 -1 11 2 17 5 13 3 -3 4
-12 1 -19z m263 2 c0 -11 -4 -20 -9 -20 -5 0 -7 9 -4 20 3 11 7 20 9 20 2 0 4
-9 4 -20z m-1091 -27 c-15 -56 -20 -63 -13 -18 6 39 11 55 19 55 2 0 -1 -17
-6 -37z m1162 14 c-10 -9 -11 -8 -5 6 3 10 9 15 12 12 3 -3 0 -11 -7 -18z m39
-8 c0 -5 -4 -7 -10 -4 -5 3 -10 1 -10 -4 0 -6 -5 -11 -11 -11 -8 0 -8 5 1 15
14 17 30 20 30 4z m-843 -5 c-3 -3 -12 -4 -19 -1 -8 3 -5 6 6 6 11 1 17 -2 13
-5z m631 -29 c-3 -3 -9 2 -12 12 -6 14 -5 15 5 6 7 -7 10 -15 7 -18z m119 -7
c-3 -8 -6 -5 -6 6 -1 11 2 17 5 13 3 -3 4 -12 1 -19z m-700 -10 c-3 -8 -6 -5
-6 6 -1 11 2 17 5 13 3 -3 4 -12 1 -19z m238 2 c0 -22 -29 -18 -33 3 -3 14 1
18 15 15 10 -2 18 -10 18 -18z m561 11 c-7 -11 -46 -21 -46 -12 0 13 13 21 32
21 11 0 17 -4 14 -9z m-209 -33 c-3 -8 -6 -5 -6 6 -1 11 2 17 5 13 3 -3 4 -12
1 -19z m241 -7 c3 -16 19 -29 56 -45 30 -13 57 -29 61 -36 4 -7 -5 -5 -23 4
-45 23 -82 21 -82 -4 0 -21 7 -24 50 -20 14 1 22 -1 19 -4 -3 -3 -18 -7 -32
-8 -25 -2 -33 -17 -28 -50 0 -4 -6 -5 -14 -2 -8 4 -13 10 -10 14 3 5 -5 6 -17
3 -19 -4 -20 -3 -6 6 10 7 14 19 11 31 -3 11 -1 20 5 20 14 0 2 41 -14 47 -19
7 -17 21 4 26 11 3 6 7 -16 12 -21 5 -30 11 -24 17 6 6 18 5 33 -3 23 -12 23
-11 9 6 -13 16 -13 18 0 13 8 -2 16 -15 18 -27z m-1261 -43 c-2 -13 -4 -5 -4
17 -1 22 1 32 4 23 2 -10 2 -28 0 -40z m920 30 c-3 -8 -6 -5 -6 6 -1 11 2 17
5 13 3 -3 4 -12 1 -19z m170 -10 c-3 -7 -5 -2 -5 12 0 14 2 19 5 13 2 -7 2
-19 0 -25z m78 22 c3 -5 1 -10 -4 -10 -6 0 -11 5 -11 10 0 6 2 10 4 10 3 0 8
-4 11 -10z m-498 -37 c-3 -10 -5 -4 -5 12 0 17 2 24 5 18 2 -7 2 -21 0 -30z
m360 5 c-3 -8 -6 -5 -6 6 -1 11 2 17 5 13 3 -3 4 -12 1 -19z m106 5 c-3 -7 -9
-10 -14 -7 -14 8 -11 21 5 21 8 0 12 -6 9 -14z m-911 -70 c2 -25 -1 -43 -7
-43 -6 0 -8 22 -6 57 5 61 8 57 13 -14z m242 -44 c4 -56 3 -63 -3 -29 -15 81
-21 147 -11 124 5 -12 11 -55 14 -95z m643 49 c-3 -7 -5 -2 -5 12 0 14 2 19 5
13 2 -7 2 -19 0 -25z m133 22 c0 -5 -4 -10 -10 -10 -5 0 -10 5 -10 10 0 6 5
10 10 10 6 0 10 -4 10 -10z m-1133 -26 c-3 -3 -12 -4 -19 -1 -8 3 -5 6 6 6 11
1 17 -2 13 -5z m963 -8 c0 -11 -19 -15 -25 -6 -3 5 1 10 9 10 9 0 16 -2 16 -4z
m321 -13 c13 -17 13 -17 -6 -3 -11 8 -22 16 -24 17 -2 2 0 3 6 3 6 0 17 -8 24
-17z m-294 -50 c-3 -10 -5 -2 -5 17 0 19 2 27 5 18 2 -10 2 -26 0 -35z m273
43 c0 -2 -13 -6 -29 -8 -17 -2 -28 -1 -25 4 5 8 54 12 54 4z m-952 -23 c-10
-2 -26 -2 -35 0 -10 3 -2 5 17 5 19 0 27 -2 18 -5z m457 -3 c14 -7 8 -8 -20
-3 -22 3 -42 7 -44 9 -9 8 45 2 64 -6z m67 -45 c-2 -19 -5 -35 -7 -35 -2 0 -5
16 -7 35 -2 21 0 35 7 35 7 0 9 -14 7 -35z m-35 8 c6 -17 -35 -12 -42 5 -3 9
2 12 17 10 12 -2 23 -8 25 -15z m80 11 c-3 -3 -12 -4 -19 -1 -8 3 -5 6 6 6 11
1 17 -2 13 -5z m277 -5 c3 -3 -6 -6 -19 -7 -14 -1 -25 3 -25 8 0 10 35 9 44
-1z m-20 -27 c3 -5 -14 -9 -37 -9 -35 -1 -38 0 -17 7 34 11 48 11 54 2z
m-1247 -59 c-3 -10 -5 -2 -5 17 0 19 2 27 5 18 2 -10 2 -26 0 -35z m713 32 c0
-8 -4 -15 -10 -15 -5 0 -10 7 -10 15 0 8 5 15 10 15 6 0 10 -7 10 -15z m107
-37 c-2 -13 -4 -5 -4 17 -1 22 1 32 4 23 2 -10 2 -28 0 -40z m110 -5 c-3 -10
-5 -4 -5 12 0 17 2 24 5 18 2 -7 2 -21 0 -30z m-434 -115 c8 -5 5 -8 -8 -8
-19 0 -20 5 -15 72 l5 73 3 -65 c2 -36 8 -68 15 -72z m214 100 c-3 -8 -6 -5
-6 6 -1 11 2 17 5 13 3 -3 4 -12 1 -19z m360 -30 c-3 -8 -6 -5 -6 6 -1 11 2
17 5 13 3 -3 4 -12 1 -19z m143 -22 c-8 -10 -4 -15 20 -19 33 -7 40 -30 13
-46 -16 -9 -16 -10 4 -11 12 0 23 4 25 10 2 5 8 -1 14 -15 9 -19 9 -22 -3 -18
-11 4 -13 -4 -12 -35 2 -23 -1 -45 -5 -49 -4 -5 -7 -1 -6 7 6 40 -1 60 -20 60
-18 0 -18 -1 -2 -30 13 -22 14 -32 5 -41 -8 -8 -11 -8 -10 2 2 49 -1 50 -58
18 -30 -17 -59 -28 -64 -25 -5 3 -12 -1 -15 -10 -4 -9 -9 -14 -13 -11 -3 4
-12 2 -20 -4 -7 -6 -13 -8 -13 -3 0 5 -5 2 -10 -6 -5 -8 -10 -10 -10 -4 0 6
-18 9 -44 7 -49 -4 -65 9 -44 34 11 15 11 16 -4 10 -22 -8 -23 10 -3 37 15 19
15 19 16 -5 1 -17 3 -19 6 -6 3 10 0 24 -7 31 -8 11 -7 18 5 30 9 9 21 16 27
16 5 0 8 7 5 15 -7 18 9 30 17 13 3 -7 4 -4 1 8 -3 12 1 27 10 34 12 10 15 9
15 -6 0 -14 2 -16 9 -6 12 20 142 51 164 40 14 -7 16 -13 7 -22z m-1220 9 c0
-8 -2 -15 -4 -15 -2 0 -6 7 -10 15 -3 8 -1 15 4 15 6 0 10 -7 10 -15z m739
-52 c1 -18 -4 -23 -21 -22 -19 1 -19 2 -5 6 15 4 18 12 13 46 -4 31 -3 36 3
17 5 -14 9 -35 10 -47z m700 20 c1 -7 -6 -13 -14 -13 -17 0 -18 4 -8 39 6 23
7 23 14 5 4 -10 8 -25 8 -31z m31 37 c0 -5 -4 -10 -10 -10 -5 0 -10 5 -10 10
0 6 5 10 10 10 6 0 10 -4 10 -10z m-1417 -7 c-7 -2 -19 -2 -25 0 -7 3 -2 5 12
5 14 0 19 -2 13 -5z m80 0 c-13 -2 -33 -2 -45 0 -13 2 -3 4 22 4 25 0 35 -2
23 -4z m694 -25 c-3 -8 -6 -5 -6 6 -1 11 2 17 5 13 3 -3 4 -12 1 -19z m653
-10 c0 -13 -23 -5 -28 10 -2 7 2 10 12 6 9 -3 16 -11 16 -16z m-863 -25 c-20
-2 -52 -2 -70 0 -17 2 0 4 38 4 39 0 53 -2 32 -4z m130 -75 c-2 -13 -4 -5 -4
17 -1 22 1 32 4 23 2 -10 2 -28 0 -40z m-628 -78 c0 -9 -4 -8 -9 5 -5 11 -9
27 -9 35 0 9 4 8 9 -5 5 -11 9 -27 9 -35z m644 44 c3 -3 3 -12 0 -19 -6 -17
-33 -8 -33 11 0 14 21 19 33 8z m893 -20 c-2 -6 0 -16 6 -22 15 -15 2 -29 -27
-29 -25 0 -25 0 -9 18 10 11 12 19 6 19 -7 0 -12 6 -12 14 0 9 9 14 20 13 11
-1 18 -7 16 -13z m-56 -10 c0 -8 -5 -12 -10 -9 -6 4 -8 11 -5 16 9 14 15 11
15 -7z m-394 -17 c3 -24 -13 -21 -19 4 -3 12 -1 19 5 17 6 -2 12 -12 14 -21z
m-1216 9 c0 -2 -8 -10 -17 -17 -16 -13 -17 -12 -4 4 13 16 21 21 21 13z m267
-18 c-3 -8 -6 -5 -6 6 -1 11 2 17 5 13 3 -3 4 -12 1 -19z m148 12 c3 -5 13 -6
22 -3 11 4 14 3 9 -5 -5 -9 -1 -10 16 -3 13 4 49 4 83 -1 33 -5 155 -11 270
-14 116 -2 220 -7 233 -9 12 -3 37 -28 57 -58 20 -28 50 -63 68 -76 49 -36 60
-66 40 -105 -13 -24 -18 -27 -21 -13 -2 9 -10 17 -18 17 -8 0 -14 4 -14 8 0 5
-6 9 -12 10 -7 0 -30 2 -51 3 -21 1 -40 6 -43 11 -3 4 -9 6 -14 3 -5 -3 -37 1
-71 10 -35 8 -65 12 -68 10 -2 -3 -10 0 -17 6 -8 7 -14 7 -19 -1 -3 -5 -11
-10 -16 -10 -6 0 -7 5 -3 12 4 6 3 8 -3 5 -6 -4 -52 5 -104 20 -52 14 -105 27
-118 29 -13 1 -28 9 -32 16 -6 8 -9 9 -9 2 0 -8 -14 -11 -37 -8 -64 6 -64 6
-57 28 6 18 5 19 -9 8 -9 -8 -19 -22 -22 -32 -5 -15 -13 -17 -46 -13 -35 5
-39 4 -33 -13 4 -15 4 -16 -4 -5 -6 8 -8 21 -4 29 4 12 -1 14 -21 10 -15 -3
-24 -1 -21 3 2 4 -4 13 -15 18 -29 16 -37 52 -15 68 11 8 13 13 5 13 -21 0 6
28 32 33 41 8 76 7 82 -3z m880 0 c3 -5 1 -10 -4 -10 -6 0 -11 5 -11 10 0 6 2
10 4 10 3 0 8 -4 11 -10z m-1146 -79 c1 -35 -5 -22 -12 24 -5 28 -4 34 3 20 5
-11 9 -31 9 -44z m1101 56 c0 -2 -10 -12 -22 -23 l-23 -19 19 23 c18 21 26 27
26 19z m21 -20 c-10 -9 -11 -8 -5 6 3 10 9 15 12 12 3 -3 0 -11 -7 -18z
m-1046 -6 c3 -5 2 -12 -3 -15 -5 -3 -9 1 -9 9 0 17 3 19 12 6z m1182 3 c-3 -3
-12 -4 -19 -1 -8 3 -5 6 6 6 11 1 17 -2 13 -5z m-92 -22 c-3 -3 -11 0 -18 7
-9 10 -8 11 6 5 10 -3 15 -9 12 -12z m-127 -31 c-13 -15 -25 -27 -27 -25 -4 4
39 54 47 54 2 0 -7 -13 -20 -29z m-984 -16 c-19 -15 -19 -15 0 -30 11 -8 15
-15 10 -15 -6 0 -21 11 -33 24 -21 23 -22 25 -4 29 38 10 47 7 27 -8z m91 -25
c10 -11 21 -17 25 -15 7 5 24 -25 18 -30 -2 -2 -21 12 -42 31 -22 19 -35 34
-29 34 5 0 18 -9 28 -20z m1199 -29 c4 -5 -3 -7 -14 -4 -23 6 -26 13 -6 13 8
0 17 -4 20 -9z m-1108 -52 c20 -22 23 -28 8 -19 -18 11 -50 50 -41 50 2 0 16
-14 33 -31z m125 15 c17 -8 33 -13 36 -11 2 3 19 -1 38 -8 18 -8 36 -11 41 -7
5 4 2 -1 -5 -10 -7 -10 -22 -18 -32 -18 -11 0 -19 -5 -19 -12 0 -6 -3 -8 -6
-5 -4 3 -14 2 -24 -3 -9 -5 -32 -11 -51 -14 -19 -2 -54 -7 -78 -11 -47 -7 -47
-3 -3 43 6 7 12 17 12 21 0 11 40 51 51 51 5 0 24 -7 40 -16z m189 -14 c0 -5
-2 -10 -4 -10 -3 0 -8 5 -11 10 -3 6 -1 10 4 10 6 0 11 -4 11 -10z m50 -10
c18 -12 2 -12 -25 0 -13 6 -15 9 -5 9 8 0 22 -4 30 -9z m740 -11 c0 -5 -16 -9
-36 -9 -30 0 -34 3 -25 14 12 14 61 10 61 -5z m-635 1 c3 -5 12 -7 20 -4 8 3
20 2 27 -2 7 -4 25 -8 40 -9 16 -1 34 -7 41 -14 9 -10 7 -11 -13 -7 -14 4 -52
8 -86 10 -33 2 -74 11 -90 19 l-29 16 42 1 c23 0 44 -4 48 -10z m-240 -80 c-3
-5 -11 -10 -16 -10 -6 0 -7 5 -4 10 3 6 11 10 16 10 6 0 7 -4 4 -10z m165 -76
c0 -8 -7 -14 -15 -14 -15 0 -21 21 -9 33 10 9 24 -2 24 -19z m-293 -26 c-3 -7
-5 -2 -5 12 0 14 2 19 5 13 2 -7 2 -19 0 -25z m510 -30 c-3 -8 -6 -5 -6 6 -1
11 2 17 5 13 3 -3 4 -12 1 -19z m-209 -63 l-1 -30 -4 28 c-3 15 -11 27 -19 27
-12 0 -12 2 -2 14 17 18 28 1 26 -39z m197 -100 c10 -22 21 -52 26 -67 7 -25
5 -28 -14 -27 -12 0 -16 3 -9 6 18 7 15 23 -13 87 -14 31 -25 67 -24 79 1 17
3 16 9 -8 4 -16 15 -48 25 -70z m162 73 c-3 -8 -6 -5 -6 6 -1 11 2 17 5 13 3
-3 4 -12 1 -19z m-18 -43 c0 5 8 0 16 -12 14 -20 11 -53 -5 -53 -4 0 -13 7
-20 15 -11 13 -10 14 2 10 9 -4 15 0 15 10 0 12 -6 15 -24 10 -13 -3 -23 -1
-23 5 0 6 5 8 10 5 6 -4 11 9 11 32 l2 38 7 -35 c4 -19 8 -31 9 -25z m-352 13
c-3 -8 -6 -5 -6 6 -1 11 2 17 5 13 3 -3 4 -12 1 -19z m241 -53 c-3 -3 -9 2
-12 12 -6 14 -5 15 5 6 7 -7 10 -15 7 -18z m52 21 c0 -2 -7 -7 -16 -10 -8 -3
-12 -2 -9 4 6 10 25 14 25 6z m-294 -63 c-7 -7 -36 16 -36 29 0 5 5 6 10 3 6
-3 10 2 11 12 0 12 4 8 11 -10 5 -16 7 -31 4 -34z m-296 18 c-6 -12 -8 -26 -5
-31 3 -6 1 -10 -4 -10 -6 0 -12 -8 -12 -17 -1 -14 -2 -15 -6 -3 -4 18 25 95
33 87 3 -3 1 -15 -6 -26z m487 13 c-3 -3 -12 -4 -19 -1 -8 3 -5 6 6 6 11 1 17
-2 13 -5z m103 -15 c0 -5 -4 -9 -10 -9 -5 0 -10 7 -10 16 0 8 5 12 10 9 6 -3
10 -10 10 -16z m-753 -5 c-3 -3 -12 -4 -19 -1 -8 3 -5 6 6 6 11 1 17 -2 13 -5z
m46 -11 c-7 -2 -19 -2 -25 0 -7 3 -2 5 12 5 14 0 19 -2 13 -5z m787 -9 c0 -10
-6 -14 -14 -11 -8 3 -29 2 -47 -3 -39 -12 -29 1 14 17 43 16 47 15 47 -3z
m-713 0 c-3 -3 -12 -4 -19 -1 -8 3 -5 6 6 6 11 1 17 -2 13 -5z m397 -58 c17 4
33 9 36 13 3 3 27 7 55 9 52 4 58 -5 9 -14 -75 -13 -119 -26 -125 -36 -4 -6
-12 6 -19 27 -9 27 -15 34 -21 24 -7 -11 -9 -11 -9 2 0 30 15 30 29 -1 13 -27
18 -30 45 -24z m-317 38 c-3 -3 -12 -4 -19 -1 -8 3 -5 6 6 6 11 1 17 -2 13 -5z
m110 -20 c-3 -3 -12 -4 -19 -1 -8 3 -5 6 6 6 11 1 17 -2 13 -5z m63 -14 c11
-8 7 -9 -15 -4 -37 8 -45 14 -19 14 10 0 26 -5 34 -10z m348 -67 c7 -12 12
-28 11 -35 -1 -24 -38 66 -38 92 1 23 2 22 8 -5 4 -16 13 -40 19 -52z m12 73
c0 -3 -4 -8 -10 -11 -5 -3 -10 -1 -10 4 0 6 5 11 10 11 6 0 10 -2 10 -4z
m-881 -60 c-22 -20 -23 -20 -6 0 9 11 18 29 18 40 1 18 2 18 6 0 3 -11 -4 -27
-18 -40z m261 -7 c-11 -24 -20 -39 -20 -32 0 15 32 84 37 79 2 -1 -6 -23 -17
-47z m662 -74 c-3 -5 -14 8 -23 30 -10 22 -15 43 -12 48 3 5 0 13 -7 17 -7 5
-9 13 -5 21 6 8 16 -7 31 -47 12 -32 19 -63 16 -69z m-305 83 c-3 -8 -6 -5 -6
6 -1 11 2 17 5 13 3 -3 4 -12 1 -19z m308 12 c3 -5 1 -10 -4 -10 -6 0 -11 5
-11 10 0 6 2 10 4 10 3 0 8 -4 11 -10z m-224 -75 c14 -42 22 -78 17 -81 -10
-6 -41 63 -33 75 3 5 -2 22 -10 37 -17 32 -19 44 -7 44 4 0 19 -34 33 -75z
m-26 -55 c3 -14 -4 -2 -14 25 -11 28 -19 61 -20 75 0 23 21 -37 34 -100z m132
106 c-5 -13 18 -31 34 -28 3 0 13 -15 22 -34 9 -18 12 -34 7 -34 -6 0 -10 5
-10 11 0 6 -7 3 -16 -5 -17 -18 -50 -21 -59 -6 -8 13 -25 13 -25 -1 0 -5 5 -7
12 -3 6 4 8 3 5 -4 -11 -16 -42 -7 -41 12 1 9 -3 16 -8 16 -6 0 -8 7 -5 15 4
8 2 17 -3 20 -11 7 -2 35 11 35 5 0 9 -13 9 -30 0 -16 5 -30 11 -30 6 0 8 8 4
19 -3 11 -1 22 4 26 6 3 8 0 5 -8 -3 -8 2 -17 10 -20 20 -8 22 23 4 42 -9 10
-9 12 -1 7 6 -3 14 -2 18 4 9 15 18 12 12 -4z m33 -7 c0 -5 -4 -9 -10 -9 -5 0
-10 7 -10 16 0 8 5 12 10 9 6 -3 10 -10 10 -16z m-313 -51 c-3 -8 -6 -5 -6 6
-1 11 2 17 5 13 3 -3 4 -12 1 -19z m113 -13 c0 -5 -5 -3 -10 5 -5 8 -10 20
-10 25 0 6 5 3 10 -5 5 -8 10 -19 10 -25z m-409 -17 c-10 -28 -9 -35 6 -46 17
-13 16 -14 -4 -7 -15 4 -23 2 -23 -6 0 -7 -3 -10 -6 -7 -3 4 3 29 12 57 10 27
20 48 22 46 3 -2 -1 -19 -7 -37z m326 20 c-3 -8 -6 -5 -6 6 -1 11 2 17 5 13 3
-3 4 -12 1 -19z m347 -25 c9 -18 14 -33 12 -33 -6 0 -36 55 -36 66 0 11 5 3
24 -33z m-395 -37 c-6 -25 -9 -53 -5 -61 4 -10 2 -14 -6 -9 -7 5 -9 -2 -6 -20
4 -19 2 -24 -5 -17 -8 8 -5 33 7 87 10 41 20 73 22 71 3 -3 0 -25 -7 -51z
m441 17 c0 -13 -3 -13 -15 -3 -8 7 -12 16 -9 21 8 13 24 1 24 -18z m-270 -92
c0 -11 3 -12 10 -5 8 8 7 19 0 39 -6 15 -9 30 -6 32 2 3 10 -12 17 -31 16 -44
30 -47 25 -6 -2 17 1 30 6 30 6 0 8 -9 5 -21 -3 -12 0 -22 8 -26 11 -4 12 -8
2 -18 -7 -7 -15 -11 -19 -8 -5 2 -8 -2 -8 -10 0 -13 -29 -33 -35 -25 -6 9 -45
141 -45 151 1 16 40 -84 40 -102z m-533 93 c-3 -3 -12 -4 -19 -1 -8 3 -5 6 6
6 11 1 17 -2 13 -5z m40 -10 c-3 -3 -12 -4 -19 -1 -8 3 -5 6 6 6 11 1 17 -2
13 -5z m680 -7 c6 -7 0 -9 -29 -11 -7 -1 -16 -5 -20 -11 -5 -6 -12 -4 -18 5
-7 11 -10 11 -10 2 0 -7 -4 -11 -9 -8 -5 4 -11 1 -13 -6 -3 -8 -7 -6 -11 5 -5
13 1 19 26 25 35 10 73 9 84 -1z m6 -37 c-15 -14 -103 -39 -103 -29 0 5 7 9
16 9 8 0 13 4 10 9 -3 4 5 6 18 4 13 -3 30 2 37 10 8 8 18 13 22 10 5 -3 5 -9
0 -13z m-468 -10 c39 -10 61 -19 50 -19 -11 0 -49 8 -85 19 -36 10 -58 19 -50
19 8 0 47 -8 85 -19z m420 -40 c-3 -5 -16 -10 -28 -9 -21 0 -21 1 -2 9 28 12
37 12 30 0z"/>
<path d="M2061 2728 c-10 -26 -6 -38 12 -37 9 0 9 2 0 5 -8 4 -9 13 -3 30 5
13 7 24 4 24 -2 0 -8 -10 -13 -22z"/>
<path d="M1980 2410 c38 -36 107 -43 126 -12 10 15 5 17 -53 17 -35 1 -68 6
-75 13 -7 7 -16 12 -21 12 -5 0 5 -13 23 -30z"/>
<path d="M2505 1550 c-3 -5 1 -10 10 -10 9 0 13 5 10 10 -3 6 -8 10 -10 10 -2
0 -7 -4 -10 -10z"/>
<path d="M2329 1533 c-13 -16 -12 -17 4 -4 9 7 17 15 17 17 0 8 -8 3 -21 -13z"/>
<path d="M2428 1533 c7 -3 16 -2 19 1 4 3 -2 6 -13 5 -11 0 -14 -3 -6 -6z"/>
<path d="M2261 578 c-1 -9 -9 -22 -18 -27 -17 -10 -17 -10 0 -11 19 0 32 22
24 42 -4 8 -6 7 -6 -4z"/>
<path d="M2285 550 c-3 -5 -1 -10 4 -10 6 0 11 5 11 10 0 6 -2 10 -4 10 -3 0
-8 -4 -11 -10z"/>
<path d="M2157 393 c-4 -3 -7 -11 -7 -17 0 -6 5 -5 12 2 6 6 9 14 7 17 -3 3
-9 2 -12 -2z"/>
<path d="M2358 3083 c7 -3 16 -2 19 1 4 3 -2 6 -13 5 -11 0 -14 -3 -6 -6z"/>
<path d="M2410 3074 c34 -7 209 -9 197 -2 -6 4 -57 7 -112 7 -55 -1 -93 -3
-85 -5z"/>
<path d="M2657 3063 c18 -2 50 -2 70 0 21 2 7 4 -32 4 -38 0 -55 -2 -38 -4z"/>
<path d="M2918 3053 c18 -2 45 -2 60 0 15 2 0 4 -33 4 -33 0 -45 -2 -27 -4z"/>
<path d="M338 3044 c-2 -5 1 -20 8 -34 8 -14 13 -18 13 -10 -1 24 -15 55 -21
44z"/>
<path d="M3073 3043 c15 -2 37 -2 50 0 12 2 0 4 -28 4 -27 0 -38 -2 -22 -4z"/>
<path d="M260 3034 c0 -7 9 -22 21 -35 16 -19 18 -20 10 -4 -17 34 -31 51 -31
39z"/>
<path d="M294 3031 c7 -11 46 -35 46 -28 0 3 -12 12 -26 22 -15 9 -23 12 -20
6z"/>
<path d="M1260 3006 c0 -29 5 -38 30 -51 32 -16 71 -18 110 -4 20 7 18 8 -12
4 -48 -7 -108 21 -108 49 0 20 4 21 112 18 62 -2 110 -1 108 1 -3 2 -58 7
-122 11 l-118 7 0 -35z"/>
<path d="M3213 3033 c9 -2 25 -2 35 0 9 3 1 5 -18 5 -19 0 -27 -2 -17 -5z"/>
<path d="M3498 3013 c7 -3 16 -2 19 1 4 3 -2 6 -13 5 -11 0 -14 -3 -6 -6z"/>
<path d="M507 3003 c-4 -3 -7 -11 -7 -17 0 -6 5 -5 12 2 6 6 9 14 7 17 -3 3
-9 2 -12 -2z"/>
<path d="M245 2970 c28 -12 37 -12 30 0 -3 6 -16 10 -28 9 -21 0 -21 -1 -2 -9z"/>
<path d="M350 2975 c0 -5 5 -17 10 -25 5 -8 10 -10 10 -5 0 6 -5 17 -10 25 -5
8 -10 11 -10 5z"/>
<path d="M1630 2963 c8 -12 24 -23 37 -26 12 -2 20 0 17 4 -3 5 -10 9 -16 9
-6 0 -20 8 -31 18 -19 16 -19 16 -7 -5z"/>
<path d="M220 2945 c13 -14 33 -25 44 -24 16 0 14 4 -11 15 -18 8 -33 19 -33
24 0 6 -5 10 -12 10 -6 0 -1 -11 12 -25z"/>
<path d="M1438 2963 c7 -3 16 -2 19 1 4 3 -2 6 -13 5 -11 0 -14 -3 -6 -6z"/>
<path d="M300 2950 c8 -5 20 -10 25 -10 6 0 3 5 -5 10 -8 5 -19 10 -25 10 -5
0 -3 -5 5 -10z"/>
<path d="M560 2950 c12 -7 7 -12 -20 -24 -19 -8 -28 -15 -20 -16 22 0 62 29
55 41 -4 5 -12 9 -18 9 -7 0 -6 -4 3 -10z"/>
<path d="M243 2903 c-13 -2 -23 -9 -23 -14 0 -6 9 -7 23 -3 12 4 38 11 57 15
l35 7 -35 -1 c-19 0 -45 -2 -57 -4z"/>
<path d="M464 2899 c-15 -6 -12 -8 12 -8 17 -1 49 -8 70 -16 l39 -16 -25 20
c-28 22 -69 31 -96 20z"/>
<path d="M2720 2880 c0 -5 5 -10 11 -10 5 0 7 5 4 10 -3 6 -8 10 -11 10 -2 0
-4 -4 -4 -10z"/>
<path d="M185 2871 c-3 -6 2 -14 12 -19 27 -13 93 -15 93 -3 0 6 -14 11 -31
11 -17 0 -39 5 -49 10 -12 6 -21 7 -25 1z"/>
<path d="M319 2859 c-23 -19 -23 -20 -2 -10 12 6 25 16 28 21 10 16 -1 12 -26
-11z"/>
<path d="M388 2863 c6 -2 18 -2 25 0 6 3 1 5 -13 5 -14 0 -19 -2 -12 -5z"/>
<path d="M2720 2840 c45 -25 58 -25 35 0 -10 11 -30 20 -44 20 -25 -1 -25 -2
9 -20z"/>
<path d="M2884 2850 c-12 -5 -26 -15 -30 -22 -6 -10 -4 -10 9 1 10 8 31 14 48
13 16 0 27 4 24 9 -7 11 -23 11 -51 -1z"/>
<path d="M3690 2848 c0 -9 5 -20 11 -23 17 -11 20 0 4 21 -13 17 -14 17 -15 2z"/>
<path d="M523 2843 c9 -2 25 -2 35 0 9 3 1 5 -18 5 -19 0 -27 -2 -17 -5z"/>
<path d="M440 2819 c0 -11 4 -18 10 -14 5 3 7 12 3 20 -7 21 -13 19 -13 -6z"/>
<path d="M1312 2814 c13 -27 55 -54 85 -54 10 1 29 7 43 15 l25 15 -32 -6
c-40 -8 -106 4 -98 17 4 5 1 9 -5 9 -6 0 -9 4 -6 9 3 5 -1 11 -9 14 -12 5 -12
2 -3 -19z"/>
<path d="M275 2816 c-20 -15 -15 -46 9 -46 7 0 24 9 37 21 l24 21 -25 -16
c-44 -28 -72 -10 -32 20 23 18 11 18 -13 0z"/>
<path d="M3671 2816 c14 -13 69 -35 69 -28 0 9 -44 32 -62 32 -6 0 -9 -2 -7
-4z"/>
<path d="M351 2794 c-1 -12 6 -28 16 -35 15 -13 15 -12 6 6 -6 11 -13 27 -16
35 -4 10 -6 8 -6 -6z"/>
<path d="M2704 2794 c-28 -12 -27 -13 16 -7 53 7 57 9 32 15 -10 3 -32 -1 -48
-8z"/>
<path d="M460 2796 c0 -3 9 -10 20 -16 11 -6 20 -8 20 -6 0 3 -9 10 -20 16
-11 6 -20 8 -20 6z"/>
<path d="M2875 2791 c17 -5 39 -12 50 -16 15 -6 17 -5 9 4 -6 6 -28 14 -50 16
-35 4 -36 4 -9 -4z"/>
<path d="M2840 2773 c1 -19 46 -39 70 -31 25 7 25 8 -2 4 -16 -2 -28 0 -28 3
0 3 -9 12 -20 19 -11 7 -20 9 -20 5z"/>
<path d="M3700 2760 c-11 -7 -6 -10 20 -10 26 0 31 3 20 10 -8 5 -17 10 -20
10 -3 0 -12 -5 -20 -10z"/>
<path d="M245 2750 c3 -5 8 -10 11 -10 2 0 4 5 4 10 0 6 -5 10 -11 10 -5 0 -7
-4 -4 -10z"/>
<path d="M2620 2751 c0 -6 4 -13 10 -16 6 -3 7 1 4 9 -7 18 -14 21 -14 7z"/>
<path d="M2683 2753 c9 -2 25 -2 35 0 9 3 1 5 -18 5 -19 0 -27 -2 -17 -5z"/>
<path d="M3811 2756 c2 -2 22 -9 44 -15 36 -9 38 -9 21 4 -17 13 -77 23 -65
11z"/>
<path d="M570 2730 c-6 -11 -8 -20 -6 -20 3 0 10 9 16 20 6 11 8 20 6 20 -3 0
-10 -9 -16 -20z"/>
<path d="M2765 2731 c-3 -11 1 -33 9 -48 14 -28 14 -28 9 17 -7 54 -9 58 -18
31z"/>
<path d="M509 2723 c-13 -17 -13 -17 6 -3 11 8 22 16 24 17 2 2 0 3 -6 3 -6 0
-17 -8 -24 -17z"/>
<path d="M2841 2730 c-1 -23 24 -50 45 -49 17 0 17 1 -2 11 -12 5 -27 20 -32
32 -7 13 -11 15 -11 6z"/>
<path d="M3805 2730 c3 -5 8 -10 11 -10 2 0 4 5 4 10 0 6 -5 10 -11 10 -5 0
-7 -4 -4 -10z"/>
<path d="M236 2706 c3 -8 13 -17 22 -21 13 -5 13 -2 -3 15 -21 24 -26 25 -19
6z"/>
<path d="M1431 2698 c-1 -18 8 -34 30 -52 37 -31 69 -33 100 -6 l24 20 -27
-11 c-16 -7 -38 -8 -55 -4 -15 5 -31 8 -35 7 -8 -2 -12 14 -9 31 1 5 -3 6 -8
3 -5 -4 -12 4 -14 16 -4 21 -4 20 -6 -4z"/>
<path d="M3800 2693 c0 -13 5 -23 10 -23 13 0 13 11 0 30 -8 12 -10 11 -10 -7z"/>
<path d="M3840 2691 c0 -6 4 -13 10 -16 6 -3 7 1 4 9 -7 18 -14 21 -14 7z"/>
<path d="M530 2671 c0 -8 -17 -29 -37 -49 -36 -33 -36 -34 -5 -13 33 23 58 58
48 69 -3 3 -6 0 -6 -7z"/>
<path d="M2704 2651 c17 -17 34 -31 39 -31 14 0 -23 39 -48 52 -14 8 -12 2 9
-21z"/>
<path d="M3741 2664 c0 -12 7 -28 17 -35 15 -12 16 -12 6 1 -7 8 -14 24 -17
35 -4 19 -5 19 -6 -1z"/>
<path d="M232 2645 c-7 -14 -10 -31 -6 -36 3 -6 0 -16 -6 -24 -7 -8 -10 -22
-6 -30 7 -19 -3 -19 -25 1 -9 8 -34 17 -55 19 l-39 3 35 -12 c64 -22 110 -46
110 -56 0 -13 -7 -13 -32 1 -21 11 -86 -2 -114 -23 -6 -4 -14 -5 -17 -1 -4 3
-7 1 -7 -5 0 -30 129 -68 144 -43 4 6 20 11 37 11 31 0 41 23 13 34 -8 3 -13
10 -10 14 3 5 -1 18 -9 28 -18 24 -19 40 -2 26 7 -6 24 -34 37 -61 13 -28 27
-48 32 -45 4 3 3 15 -4 27 -6 12 -11 34 -10 49 1 14 -9 48 -22 75 -13 26 -25
54 -28 62 -2 8 -8 3 -16 -14z m45 -97 c-3 -7 -5 -2 -5 12 0 14 2 19 5 13 2 -7
2 -19 0 -25z m-52 -89 c-40 -7 -97 -3 -125 9 -27 11 84 17 125 7 l40 -9 -40
-7z"/>
<path d="M2670 2654 c0 -13 18 -39 24 -34 2 3 -2 14 -10 24 -8 11 -14 16 -14
10z"/>
<path d="M2874 2638 l-19 -23 23 19 c21 18 27 26 19 26 -2 0 -12 -10 -23 -22z"/>
<path d="M3022 2640 c0 -14 2 -19 5 -12 2 6 2 18 0 25 -3 6 -5 1 -5 -13z"/>
<path d="M270 2647 c0 -3 17 -17 38 -33 30 -23 33 -24 17 -5 -19 22 -55 46
-55 38z"/>
<path d="M541 2632 c-6 -11 -11 -27 -11 -36 0 -8 -4 -16 -10 -18 -5 -1 -12
-23 -15 -48 -3 -25 -8 -58 -11 -75 -7 -29 -7 -30 13 -12 19 16 24 17 64 3 43
-15 61 -14 127 6 l34 10 -27 14 c-15 8 -34 14 -41 14 -8 0 -14 5 -14 11 0 8
-14 10 -40 6 -22 -3 -40 -4 -40 -2 0 12 72 45 103 47 20 1 34 4 32 7 -8 7 -70
5 -83 -3 -7 -4 -24 2 -37 13 -15 11 -21 22 -15 26 13 8 13 17 -4 40 -13 18
-14 18 -25 -3z m48 -76 c7 -8 8 -17 3 -20 -6 -3 -12 3 -15 14 -6 24 -4 25 12
6z m-32 -46 c-1 -10 -3 -17 -5 -15 -2 2 -15 -8 -29 -23 l-25 -27 21 32 c12 17
21 36 21 42 0 6 4 11 9 11 6 0 9 -9 8 -20z m106 -39 c17 0 26 -5 22 -12 -4 -5
-17 -9 -28 -7 -12 1 -27 -1 -33 -5 -7 -4 -27 -1 -45 7 -32 14 -32 14 -9 18 14
2 34 3 45 2 11 -1 33 -2 48 -3z"/>
<path d="M585 2637 c7 -17 42 -33 52 -23 4 3 0 6 -7 6 -7 0 -22 8 -32 17 -17
15 -18 15 -13 0z"/>
<path d="M3653 2614 c6 -19 14 -34 19 -34 5 0 4 9 -2 19 -14 27 -13 44 3 35 6
-4 8 -3 4 1 -4 5 -14 10 -21 11 -11 1 -11 -5 -3 -32z"/>
<path d="M170 2630 c-9 -6 -10 -10 -3 -10 6 0 15 5 18 10 8 12 4 12 -15 0z"/>
<path d="M2314 2615 c-3 -8 -4 -20 -2 -27 3 -7 7 -1 10 15 6 29 1 36 -8 12z"/>
<path d="M758 2605 c17 -13 26 -13 43 -5 11 7 18 14 15 17 -3 3 -13 0 -21 -7
-12 -10 -19 -10 -27 -2 -7 7 -17 12 -22 12 -6 0 -1 -7 12 -15z"/>
<path d="M3500 2613 c0 -6 8 -17 18 -24 16 -13 16 -13 2 6 -8 11 -16 22 -17
24 -2 2 -3 0 -3 -6z"/>
<path d="M2755 2600 c3 -5 8 -10 11 -10 2 0 4 5 4 10 0 6 -5 10 -11 10 -5 0
-7 -4 -4 -10z"/>
<path d="M2681 2590 c1 -8 -1 -23 -6 -33 -4 -10 -3 -29 4 -44 10 -22 10 -25
-2 -15 -8 7 -17 9 -20 5 -4 -3 -13 0 -22 7 -24 20 -17 0 8 -21 21 -19 21 -20
2 -18 -11 1 -39 -7 -63 -18 l-43 -20 28 -11 c15 -6 39 -14 53 -18 22 -6 23 -5
12 9 -8 9 -21 13 -34 9 -14 -3 -19 -1 -14 6 9 15 57 15 93 0 44 -18 52 -17 50
2 -1 15 -4 17 -16 7 -12 -10 -13 -9 -4 8 12 22 0 116 -18 145 -8 13 -9 13 -8
0z m13 -126 c3 -8 2 -12 -4 -9 -6 3 -10 10 -10 16 0 14 7 11 14 -7z"/>
<path d="M2700 2593 c0 -13 27 -49 33 -43 3 3 -3 16 -14 29 -10 13 -19 19 -19
14z"/>
<path d="M2895 2570 c-3 -11 -4 -24 -1 -29 4 -5 2 -11 -4 -13 -5 -1 -18 -36
-28 -75 -18 -70 -18 -72 0 -57 12 12 28 15 51 11 18 -3 49 -1 68 4 l34 9 -35
-4 c-19 -1 -46 1 -60 5 -17 6 0 7 47 6 50 -2 67 0 55 7 -9 5 -20 14 -24 20 -5
7 -8 7 -8 1 0 -5 -5 -3 -10 5 -7 12 -15 13 -38 4 -22 -9 -29 -8 -29 2 0 7 7
10 15 6 11 -4 14 -1 9 12 -4 9 -3 15 1 12 4 -2 23 -1 42 4 19 4 27 8 18 9 -10
1 -18 9 -19 19 0 12 -3 10 -10 -8 -10 -23 -11 -24 -23 -8 -7 10 -16 15 -19 11
-4 -3 -7 10 -7 30 0 40 -15 50 -25 17z"/>
<path d="M3705 2580 c3 -5 8 -10 11 -10 2 0 4 5 4 10 0 6 -5 10 -11 10 -5 0
-7 -4 -4 -10z"/>
<path d="M55 2569 c-4 -6 -14 -8 -24 -4 -12 5 -13 3 -4 -6 9 -9 17 -8 34 5 13
9 18 16 12 16 -7 0 -15 -5 -18 -11z"/>
<path d="M2480 2576 c0 -2 8 -10 18 -17 15 -13 16 -12 3 4 -13 16 -21 21 -21
13z"/>
<path d="M2947 2559 c7 -7 15 -10 18 -7 3 3 -2 9 -12 12 -14 6 -15 5 -6 -5z"/>
<path d="M3655 2561 c3 -5 1 -12 -5 -16 -5 -3 -10 -23 -10 -43 0 -34 -1 -35
-15 -16 -8 10 -15 14 -15 7 0 -7 10 -21 21 -32 21 -19 21 -20 1 -14 -11 2 -33
-2 -48 -11 l-29 -15 55 -1 c38 0 51 -3 43 -11 -13 -13 -40 -15 -73 -5 l-25 7
25 -15 c24 -14 64 -12 86 5 6 5 16 3 23 -4 9 -9 11 -3 6 33 -3 25 -8 61 -11
80 l-4 35 25 -30 c32 -38 32 -25 1 21 -16 23 -26 31 -29 22 -4 -10 -6 -10 -6
0 -1 6 -6 12 -12 12 -5 0 -8 -4 -4 -9z"/>
<path d="M3845 2552 c-3 -11 -3 -27 1 -36 4 -11 2 -16 -7 -14 -9 2 -15 -13
-20 -47 -8 -61 -4 -69 24 -50 23 16 82 20 91 7 5 -9 -8 -12 -59 -13 l-30 0 26
-10 c17 -6 37 -5 65 5 l39 14 -27 12 c-16 7 -28 17 -28 21 0 4 -13 4 -30 -1
-16 -5 -30 -6 -30 -3 0 3 -6 0 -14 -6 -12 -10 -13 -8 -9 9 4 15 9 18 18 10 8
-7 18 -4 32 9 11 10 29 21 39 24 18 4 17 5 -1 6 -12 0 -26 -4 -32 -10 -7 -7
-12 3 -17 35 -8 50 -21 67 -31 38z"/>
<path d="M3480 2551 c0 -10 19 -25 25 -20 1 2 -3 10 -11 17 -8 7 -14 8 -14 3z"/>
<path d="M3880 2551 c0 -5 5 -13 10 -16 6 -3 10 -2 10 4 0 5 -4 13 -10 16 -5
3 -10 2 -10 -4z"/>
<path d="M1012 2510 c0 -19 2 -27 5 -17 2 9 2 25 0 35 -3 9 -5 1 -5 -18z"/>
<path d="M2510 2526 c0 -8 4 -17 9 -20 5 -4 7 3 4 14 -6 23 -13 26 -13 6z"/>
<path d="M2570 2520 c0 -6 7 -10 15 -10 8 0 15 2 15 4 0 2 -7 6 -15 10 -8 3
-15 1 -15 -4z"/>
<path d="M1638 2485 c-31 -27 -35 -40 -14 -48 10 -4 16 3 19 21 3 19 5 13 7
-18 l2 -45 8 55 c5 30 8 56 7 57 -1 1 -14 -9 -29 -22z"/>
<path d="M3510 2491 c0 -6 4 -13 10 -16 6 -3 7 1 4 9 -7 18 -14 21 -14 7z"/>
<path d="M3560 2496 c0 -2 7 -7 16 -10 8 -3 12 -2 9 4 -6 10 -25 14 -25 6z"/>
<path d="M3950 2491 c0 -10 19 -25 25 -20 1 2 -3 10 -11 17 -8 7 -14 8 -14 3z"/>
<path d="M1013 2410 c0 -36 2 -50 4 -32 2 17 2 47 0 65 -2 17 -4 3 -4 -33z"/>
<path d="M1612 2410 c0 -14 2 -19 5 -12 2 6 2 18 0 25 -3 6 -5 1 -5 -13z"/>
<path d="M831 2361 c-8 -5 -9 -11 -3 -15 5 -3 15 1 22 9 14 16 3 20 -19 6z"/>
<path d="M2421 2324 c-1 -34 4 -44 29 -62 16 -12 35 -22 42 -21 7 0 4 5 -7 10
-25 12 -46 44 -56 84 -7 28 -7 28 -8 -11z"/>
<path d="M416 2335 c6 -14 -12 -15 -33 -2 -15 9 -17 -2 -4 -21 11 -18 55 -11
59 9 2 9 -4 19 -12 22 -10 4 -13 1 -10 -8z"/>
<path d="M871 2334 c0 -11 3 -14 6 -6 3 7 2 16 -1 19 -3 4 -6 -2 -5 -13z"/>
<path d="M2450 2335 c7 -9 15 -13 17 -11 7 7 -7 26 -19 26 -6 0 -6 -6 2 -15z"/>
<path d="M113 2333 c4 -3 1 -13 -6 -21 -11 -13 -9 -14 11 -1 26 16 29 29 5 29
-9 0 -13 -3 -10 -7z"/>
<path d="M513 2333 c9 -2 23 -2 30 0 6 3 -1 5 -18 5 -16 0 -22 -2 -12 -5z"/>
<path d="M635 2329 c4 -6 14 -8 22 -5 8 3 24 1 36 -5 21 -10 21 -10 3 5 -22
18 -71 22 -61 5z"/>
<path d="M1014 2235 c0 -60 1 -84 3 -52 2 32 2 81 0 110 -2 29 -3 3 -3 -58z"/>
<path d="M2478 2323 c-6 -25 48 -99 56 -77 6 16 -9 55 -22 53 -4 -1 -14 -1
-22 1 -11 1 -10 3 3 9 17 6 17 9 4 19 -12 10 -15 9 -19 -5z m39 -55 c-3 -8 -6
-5 -6 6 -1 11 2 17 5 13 3 -3 4 -12 1 -19z"/>
<path d="M2672 2324 c9 -9 21 -15 27 -13 6 2 -2 10 -17 17 -25 11 -25 11 -10
-4z"/>
<path d="M2777 2333 c-10 -9 -8 -41 2 -47 14 -9 41 5 41 21 0 8 -4 11 -10 8
-6 -3 -7 1 -4 9 6 16 -16 23 -29 9z"/>
<path d="M3457 2319 c4 -13 8 -18 11 -10 2 7 -1 18 -6 23 -8 8 -9 4 -5 -13z"/>
<path d="M3741 2317 c-11 -15 -6 -47 9 -47 4 0 13 7 20 16 11 12 11 18 -2 30
-13 13 -16 13 -27 1z"/>
<path d="M2569 2293 c-17 -20 -18 -23 -3 -10 11 9 26 17 32 17 6 0 14 5 17 10
14 22 -23 8 -46 -17z"/>
<path d="M2878 2313 c7 -3 16 -2 19 1 4 3 -2 6 -13 5 -11 0 -14 -3 -6 -6z"/>
<path d="M2965 2310 c-3 -6 -11 -8 -16 -5 -11 8 -11 3 0 -28 10 -24 64 -60 75
-49 8 8 7 55 -2 68 -11 17 -49 26 -57 14z m52 -43 c4 -32 -9 -35 -37 -7 -28
28 -25 41 7 37 20 -3 27 -10 30 -30z"/>
<path d="M3647 2309 c7 -7 15 -10 18 -7 3 3 -2 9 -12 12 -14 6 -15 5 -6 -5z"/>
<path d="M3436 2290 c4 -14 16 -33 27 -42 28 -25 34 -22 10 5 -11 12 -26 31
-32 42 -11 18 -11 18 -5 -5z"/>
<path d="M3932 2279 c22 -29 40 -34 44 -11 1 7 0 8 -3 2 -3 -8 -9 -7 -19 1 -8
6 -12 15 -9 19 3 4 -4 10 -15 13 -18 5 -18 3 2 -24z"/>
<path d="M157 2282 c-15 -16 -15 -19 -2 -19 8 0 13 3 10 5 -3 3 0 11 6 19 17
20 5 16 -14 -5z"/>
<path d="M52 2270 c0 -14 2 -19 5 -12 2 6 2 18 0 25 -3 6 -5 1 -5 -13z"/>
<path d="M658 2263 c13 -13 28 -23 35 -23 7 0 3 6 -8 12 -11 6 -27 16 -35 22
-9 6 -5 1 8 -11z"/>
<path d="M741 2274 c0 -11 3 -14 6 -6 3 7 2 16 -1 19 -3 4 -6 -2 -5 -13z"/>
<path d="M839 2273 c-13 -16 -12 -17 4 -4 9 7 17 15 17 17 0 8 -8 3 -21 -13z"/>
<path d="M3042 2270 c0 -14 2 -19 5 -12 2 6 2 18 0 25 -3 6 -5 1 -5 -13z"/>
<path d="M3522 2250 c0 -14 2 -19 5 -12 2 6 2 18 0 25 -3 6 -5 1 -5 -13z"/>
<path d="M89 2243 c-12 -16 -12 -17 1 -7 8 6 22 14 30 17 13 5 12 6 -1 6 -9 1
-23 -7 -30 -16z"/>
<path d="M790 2250 c-13 -8 -13 -10 2 -10 9 0 20 5 23 10 8 13 -5 13 -25 0z"/>
<path d="M3906 2246 c3 -9 13 -16 22 -16 8 0 13 1 11 3 -2 1 -12 9 -22 16 -15
12 -17 12 -11 -3z"/>
<path d="M2840 2236 c0 -2 7 -7 16 -10 8 -3 12 -2 9 4 -6 10 -25 14 -25 6z"/>
<path d="M518 2223 c7 -3 16 -2 19 1 4 3 -2 6 -13 5 -11 0 -14 -3 -6 -6z"/>
<path d="M8 2213 c7 -3 16 -2 19 1 4 3 -2 6 -13 5 -11 0 -14 -3 -6 -6z"/>
<path d="M784 2210 c16 -5 33 -7 38 -4 4 3 8 0 8 -6 0 -7 7 -9 16 -6 8 3 12 2
9 -4 -3 -5 4 -14 15 -20 28 -15 25 -2 -6 26 -18 18 -36 24 -67 23 -40 -1 -41
-1 -13 -9z"/>
<path d="M2750 2215 c0 -5 5 -17 10 -25 5 -8 10 -10 10 -5 0 6 -5 17 -10 25
-5 8 -10 11 -10 5z"/>
<path d="M3089 2200 c47 -22 69 -18 37 6 -11 8 -34 14 -50 14 -30 0 -30 -1 13
-20z"/>
<path d="M3449 2200 l-24 -21 35 17 c43 21 47 24 28 24 -9 0 -26 -9 -39 -20z"/>
<path d="M193 2181 c6 -14 15 -32 20 -38 6 -9 4 -15 -7 -19 -20 -8 -21 -21 -1
-21 8 0 12 4 9 9 -3 4 -1 8 3 8 5 0 18 7 29 16 18 15 18 15 -3 9 -20 -6 -23
-3 -23 23 0 21 -6 31 -19 35 -18 4 -18 2 -8 -22z"/>
<path d="M618 2203 c6 -2 12 -9 12 -14 0 -6 -4 -8 -9 -5 -5 4 -4 -5 2 -19 16
-33 27 -32 27 4 0 26 -16 43 -38 40 -4 0 -1 -3 6 -6z"/>
<path d="M2696 2201 c-3 -5 2 -15 11 -22 9 -8 24 -31 33 -52 l18 -39 4 35 c2
20 1 34 -2 32 -4 -2 -14 9 -24 26 -17 29 -30 36 -40 20z"/>
<path d="M2865 2201 c-3 -6 -11 -9 -16 -5 -16 10 -38 -28 -39 -66 l0 -35 16
30 c8 17 25 40 36 52 12 13 19 25 16 29 -3 3 -9 0 -13 -5z"/>
<path d="M2952 2190 c14 -22 24 -19 15 5 -4 8 -11 15 -17 15 -6 0 -6 -7 2 -20z"/>
<path d="M3839 2195 c-1 -8 -2 -22 -3 -32 0 -9 5 -18 13 -21 10 -3 11 0 3 13
-5 10 -7 26 -5 36 3 11 3 19 -1 19 -3 0 -7 -7 -7 -15z"/>
<path d="M307 2168 c17 -18 36 -50 43 -71 6 -20 16 -35 21 -32 15 10 10 70 -7
91 -8 10 -13 12 -9 4 5 -12 4 -12 -7 1 -13 16 -51 39 -64 39 -4 0 6 -15 23
-32z"/>
<path d="M501 2189 c-13 -5 -31 -17 -38 -27 -10 -11 -12 -12 -8 -2 4 8 -1 6
-9 -4 -18 -22 -21 -63 -7 -85 7 -11 11 -5 16 22 5 24 19 47 42 68 39 34 40 41
4 28z"/>
<path d="M555 2190 c-3 -5 -2 -10 4 -10 5 0 13 5 16 10 3 6 2 10 -4 10 -5 0
-13 -4 -16 -10z"/>
<path d="M2543 2186 c-6 -8 -9 -17 -6 -20 11 -11 21 -6 26 14 6 23 -3 25 -20
6z"/>
<path d="M2660 2190 c0 -5 5 -10 11 -10 5 0 7 5 4 10 -3 6 -8 10 -11 10 -2 0
-4 -4 -4 -10z"/>
<path d="M2887 2180 c-3 -10 0 -24 7 -29 8 -7 11 -1 11 20 0 33 -10 39 -18 9z"/>
<path d="M3082 2168 c16 -16 38 -28 51 -27 19 1 18 2 -7 9 -16 5 -38 17 -50
27 -12 10 -9 6 6 -9z"/>
<path d="M3517 2180 c-9 -39 -5 -60 11 -60 8 0 12 6 8 15 -3 9 3 19 14 25 16
9 20 7 21 -7 1 -12 3 -10 8 7 6 20 3 27 -13 33 -12 5 -22 3 -27 -4 -5 -8 -8
-7 -12 2 -3 9 -7 4 -10 -11z"/>
<path d="M3620 2190 c0 -5 7 -10 15 -10 18 0 20 -16 4 -26 -8 -5 -6 -10 5 -16
9 -5 16 -16 16 -23 0 -8 7 -15 15 -15 13 0 13 3 3 20 -7 11 -17 20 -21 20 -5
0 -7 7 -3 15 3 8 3 22 0 30 -7 17 -34 21 -34 5z"/>
<path d="M3660 2193 c0 -4 8 -16 19 -27 10 -12 24 -34 30 -51 11 -28 11 -28 7
15 -3 27 -12 49 -22 57 -20 14 -34 17 -34 6z"/>
<path d="M3810 2193 c-26 -11 -40 -31 -46 -65 l-5 -33 16 35 c9 19 26 43 38
52 23 18 22 20 -3 11z"/>
<path d="M3861 2178 c0 -13 3 -17 6 -10 7 17 23 15 23 -4 0 -14 3 -14 15 -4 9
7 18 10 22 7 7 -8 33 11 33 24 0 5 -22 9 -50 9 -45 0 -50 -2 -49 -22z"/>
<path d="M146 2172 c-4 -13 -5 -26 -2 -29 10 -11 18 4 14 29 l-4 23 -8 -23z"/>
<path d="M793 2166 c15 -14 33 -26 39 -26 13 0 14 0 -32 29 l-35 23 28 -26z"/>
<path d="M2986 2175 c-9 -26 -7 -32 5 -12 6 10 9 21 6 23 -2 3 -7 -2 -11 -11z"/>
<path d="M3986 2177 c3 -10 9 -15 12 -12 3 3 0 11 -7 18 -10 9 -11 8 -5 -6z"/>
<path d="M2601 2164 c0 -11 3 -14 6 -6 3 7 2 16 -1 19 -3 4 -6 -2 -5 -13z"/>
<path d="M540 2161 c0 -6 14 -17 30 -26 17 -9 30 -14 30 -12 0 2 -13 13 -30
25 -16 13 -30 18 -30 13z"/>
<path d="M3027 2151 c-4 -17 -3 -21 5 -13 5 5 8 16 6 23 -3 8 -7 3 -11 -10z"/>
<path d="M3960 2156 c0 -8 -6 -17 -12 -19 -10 -4 -10 -6 0 -6 17 -1 16 -61 -1
-61 -8 0 -22 -9 -32 -20 -10 -11 -13 -20 -7 -20 7 0 12 4 12 10 0 10 47 26 68
22 6 -2 12 2 12 8 0 6 -4 8 -10 5 -6 -4 -10 7 -10 24 0 17 -4 31 -9 31 -5 0
-7 9 -4 20 3 11 3 20 -1 20 -3 0 -6 -6 -6 -14z"/>
<path d="M2520 2150 c0 -6 7 -13 15 -16 8 -4 12 -10 9 -15 -3 -5 2 -6 10 -3
12 5 11 9 -5 25 -21 21 -29 24 -29 9z"/>
<path d="M2665 2150 c-7 -11 22 -26 32 -16 4 3 -1 6 -11 6 -9 0 -14 5 -11 10
3 6 4 10 1 10 -3 0 -8 -5 -11 -10z"/>
<path d="M45 2140 c3 -6 21 -17 38 -26 l32 -15 -30 25 c-30 26 -51 34 -40 16z"/>
<path d="M3428 2143 c6 -2 18 -2 25 0 6 3 1 5 -13 5 -14 0 -19 -2 -12 -5z"/>
<path d="M720 2130 c-8 -5 -12 -11 -9 -14 3 -3 14 1 25 9 21 16 8 20 -16 5z"/>
<path d="M878 2133 c7 -3 16 -2 19 1 4 3 -2 6 -13 5 -11 0 -14 -3 -6 -6z"/>
<path d="M3480 2114 c0 -17 -6 -19 -39 -16 -21 2 -42 -1 -45 -7 -5 -7 7 -11
34 -11 23 0 39 -4 36 -8 -3 -5 1 -9 9 -9 8 0 13 2 10 5 -2 3 0 14 6 24 8 14 8
23 0 31 -8 8 -11 6 -11 -9z"/>
<path d="M2840 2101 c0 -11 5 -23 11 -26 7 -5 5 -15 -5 -31 -22 -33 -19 -54 3
-27 l18 22 11 -22 c10 -20 11 -19 5 7 -4 19 -1 31 8 37 11 7 10 9 -4 9 -10 0
-22 11 -27 25 -11 30 -20 32 -20 6z"/>
<path d="M3800 2110 c-13 -9 -12 -12 4 -25 14 -10 15 -15 6 -15 -11 0 -11 -3
-2 -12 7 -7 12 -20 12 -29 0 -10 4 -20 9 -23 14 -9 7 68 -8 80 -8 6 -11 16 -7
22 9 15 6 15 -14 2z"/>
<path d="M3075 2090 c-11 -17 5 -32 20 -20 8 6 26 10 42 8 l28 -4 -35 -11
c-22 -7 -28 -12 -15 -12 25 -1 67 27 60 40 -8 12 -92 12 -100 -1z"/>
<path d="M825 2078 c-16 -6 -40 -23 -52 -37 -22 -24 -22 -25 -43 -6 -11 10
-20 15 -20 10 0 -4 8 -13 17 -20 15 -11 12 -16 -23 -52 -50 -50 -92 -76 -110
-69 -8 3 -13 2 -10 -3 7 -10 -12 -28 -34 -33 -8 -2 -21 -10 -28 -18 -12 -13
-13 -13 -6 0 4 9 3 12 -2 7 -5 -5 -9 -12 -9 -15 0 -14 -17 -32 -25 -27 -4 3
-11 -2 -14 -11 -4 -10 -2 -13 7 -8 9 6 9 4 -1 -8 -11 -14 -7 -16 43 -17 48 0
62 -5 90 -30 25 -21 30 -31 20 -35 -8 -3 -14 0 -12 7 1 7 -4 11 -11 9 -8 -1
-11 2 -7 7 7 13 -35 36 -44 24 -7 -11 -24 -12 -140 -13 -51 0 -91 -6 -100 -13
-10 -8 -12 -8 -8 -1 9 15 -46 24 -67 12 -9 -5 -16 -17 -16 -26 1 -16 1 -16 10
0 10 17 43 15 67 -5 7 -5 19 -7 27 -4 16 6 28 -47 22 -95 -4 -26 -4 -26 60
-25 37 0 65 5 65 11 1 6 2 33 3 60 1 53 -3 49 78 69 24 6 27 4 33 -24 4 -18
15 -33 26 -36 10 -3 21 -14 24 -24 4 -10 19 -28 35 -39 16 -11 32 -29 35 -40
10 -30 22 -24 29 14 8 40 -2 89 -15 80 -5 -3 -9 -2 -8 3 7 40 -4 60 -48 87
-25 17 -41 32 -35 34 6 2 20 -6 31 -17 17 -17 25 -19 48 -10 14 5 34 7 42 4 9
-4 39 -11 66 -15 28 -5 60 -12 73 -16 22 -6 22 -6 5 24 -10 17 -19 29 -22 27
-7 -8 -41 16 -36 25 3 6 0 7 -8 5 -7 -3 -24 3 -37 15 -13 11 -30 21 -39 22 -9
0 -20 2 -26 3 -102 18 -123 17 -169 -10 -26 -15 -50 -25 -53 -21 -4 3 -1 6 5
6 6 0 17 6 24 14 41 40 246 97 299 83 11 -3 19 -1 19 4 0 5 5 9 10 9 6 0 10
-4 10 -10 0 -12 -77 -33 -90 -25 -6 4 -13 -1 -16 -9 -4 -11 -21 -16 -58 -17
l-51 -2 50 -7 c35 -5 53 -4 60 5 6 6 16 10 22 8 31 -11 143 50 143 78 0 4 -49
7 -110 5 -95 -3 -107 -2 -95 11 8 8 15 21 15 29 0 8 7 14 15 14 9 0 18 7 21
15 7 17 40 20 49 5 10 -17 68 -11 93 9 12 11 22 22 22 25 0 5 -69 27 -80 25
-3 0 -18 -5 -35 -11z m71 -34 c-24 -17 -34 -17 -66 0 -23 13 -21 14 30 14 50
1 53 -1 36 -14z m4 -103 c0 -6 -4 -12 -8 -15 -5 -3 -9 1 -9 9 0 8 4 15 9 15 4
0 8 -4 8 -9z m-204 -132 c47 -12 53 -19 30 -38 -11 -10 -17 -8 -25 6 -6 10
-11 12 -11 5 0 -9 -9 -9 -37 3 -21 9 -55 17 -75 18 -20 1 -34 5 -32 9 7 12 98
10 150 -3z m-108 -26 c-10 -2 -28 -2 -40 0 -13 2 -5 4 17 4 22 1 32 -1 23 -4z
m249 -23 c16 -10 16 -10 -5 -5 -12 4 -34 8 -50 10 -15 2 -28 4 -30 4 -2 1 -1
5 3 10 6 10 52 0 82 -19z"/>
<path d="M3656 2074 c-9 -24 -7 -62 2 -46 6 9 12 5 22 -13 15 -28 30 -17 29
20 0 20 0 20 -8 0 -7 -19 -9 -18 -22 5 -7 14 -12 31 -11 38 4 17 -5 15 -12 -4z"/>
<path d="M180 2070 c0 -6 7 -10 15 -10 8 0 15 2 15 4 0 2 -7 6 -15 10 -8 3
-15 1 -15 -4z"/>
<path d="M504 2062 c13 -15 15 -22 6 -22 -7 0 -10 -3 -7 -6 4 -4 -3 -20 -14
-36 -12 -16 -19 -31 -16 -34 3 -3 15 9 27 27 l23 32 11 -33 c9 -28 16 -33 49
-36 21 -2 37 1 37 8 0 5 6 8 13 5 11 -4 13 6 11 44 -1 32 2 49 9 50 7 0 3 4
-8 9 -30 13 -39 12 -25 -5 8 -9 9 -28 5 -55 -7 -39 -9 -41 -38 -38 -23 2 -35
11 -45 31 -12 25 -12 30 5 44 14 12 15 14 2 10 -9 -3 -27 2 -40 11 l-24 16 19
-22z"/>
<path d="M3011 2063 c8 -13 20 -23 28 -23 8 0 12 1 10 3 -2 1 -15 11 -28 22
l-24 20 14 -22z"/>
<path d="M3377 2064 c5 -15 45 -26 55 -16 4 4 -8 12 -26 18 -26 8 -33 8 -29
-2z"/>
<path d="M2680 2062 c0 -16 49 -82 61 -82 5 0 8 17 8 38 -1 37 -1 37 -9 7 -4
-16 -8 -25 -9 -20 -3 17 -51 71 -51 57z"/>
<path d="M3517 2056 c-16 -13 -16 -15 4 -40 11 -14 25 -26 31 -26 6 0 0 9 -13
20 -20 18 -21 24 -11 40 14 23 13 24 -11 6z"/>
<path d="M220 2056 c0 -2 7 -7 16 -10 8 -3 12 -2 9 4 -6 10 -25 14 -25 6z"/>
<path d="M278 2053 c-22 -6 -23 -29 -3 -37 13 -5 13 -8 -3 -24 -30 -30 -71
-36 -89 -15 -13 17 -13 16 -3 -4 16 -34 72 -32 95 4 l18 27 23 -28 c18 -20 24
-23 24 -11 0 9 -14 28 -30 42 -29 24 -30 26 -13 39 18 13 13 16 -19 7z"/>
<path d="M3581 2050 c-1 -37 48 -76 64 -50 3 6 -4 10 -17 10 -17 0 -27 8 -35
28 -6 15 -11 20 -12 12z"/>
<path d="M70 2035 c-7 -8 -19 -15 -27 -15 -8 0 -12 -4 -8 -10 8 -13 28 -4 43
20 14 24 10 26 -8 5z"/>
<path d="M3785 2040 c-3 -5 -2 -10 4 -10 5 0 13 5 16 10 3 6 2 10 -4 10 -5 0
-13 -4 -16 -10z"/>
<path d="M3938 2029 c20 -21 14 -28 -18 -19 -18 5 -30 5 -30 -1 0 -5 6 -9 13
-9 6 -1 -1 -12 -17 -25 -17 -13 -34 -21 -38 -19 -12 7 -39 -16 -33 -27 3 -4
-6 -16 -20 -25 -20 -13 -23 -19 -14 -30 10 -12 9 -13 -5 -8 -9 3 -16 1 -16 -5
0 -6 15 -12 33 -12 23 -1 26 -3 9 -6 -12 -2 -20 -9 -17 -14 4 -5 -4 -5 -19 1
-18 7 -26 6 -26 -1 0 -8 -4 -8 -13 0 -10 8 -17 7 -27 -2 -10 -10 -12 -7 -7 12
7 29 -9 64 -27 58 -7 -3 -11 5 -11 22 0 17 -5 26 -16 26 -8 0 -28 8 -43 18
-35 23 -163 39 -170 21 -3 -9 10 -15 42 -19 73 -10 148 -33 162 -50 11 -14 10
-14 -14 -5 -15 5 -45 10 -66 10 -21 0 -41 4 -44 9 -3 4 -22 11 -42 14 -20 4
-47 16 -60 28 -26 24 -32 14 -11 -15 7 -9 32 -20 55 -23 23 -3 42 -9 42 -14 0
-4 17 -10 38 -12 l37 -4 -42 -1 c-29 -1 -43 -6 -43 -16 0 -12 -22 -28 -42 -30
-12 -2 -41 -47 -34 -53 3 -4 19 5 34 19 38 36 104 58 165 57 l52 -1 -43 -9
c-23 -4 -49 -14 -57 -22 -8 -8 -25 -12 -39 -10 -14 3 -26 1 -26 -4 0 -19 63
-14 86 8 12 12 29 19 36 16 9 -4 8 -6 -3 -6 -9 -1 -24 -10 -34 -21 -10 -11
-23 -20 -29 -20 -15 0 -46 -88 -46 -129 l0 -31 36 40 c32 35 35 42 23 58 -13
16 -12 16 5 2 16 -13 20 -12 33 5 8 11 12 33 10 48 -2 19 2 31 12 36 23 10 54
8 58 -5 2 -6 -8 -10 -26 -9 -20 1 -28 -2 -24 -11 3 -8 8 -13 11 -12 16 3 42
-15 42 -29 0 -8 5 -11 10 -8 18 11 11 -22 -11 -49 -21 -26 -18 -46 6 -46 7 0
16 -7 19 -16 7 -19 52 -15 48 5 -3 12 0 12 13 1 26 -22 12 -34 -44 -36 -50 -3
-53 -2 -48 18 4 14 3 18 -4 11 -22 -22 -5 -47 34 -49 20 -2 37 1 37 6 0 4 9 6
20 3 11 -3 20 -1 20 5 0 6 9 8 21 5 19 -5 19 -4 -5 20 -14 14 -26 30 -26 36 0
10 -39 9 -56 -1 -11 -7 -47 16 -38 25 3 3 21 3 39 0 35 -6 58 13 34 28 -10 6
-11 9 -1 9 7 0 12 13 12 29 0 23 5 30 27 36 36 9 54 24 46 39 -3 6 3 2 15 -8
12 -11 20 -22 17 -25 -4 -3 -10 1 -15 9 -7 11 -10 8 -10 -14 0 -18 12 -44 33
-70 19 -23 39 -50 45 -61 10 -19 11 -18 17 8 4 15 5 39 1 52 -3 14 -9 37 -13
52 -3 14 -16 36 -27 47 -12 12 -15 16 -6 10 8 -7 36 -16 63 -22 62 -13 67 12
5 28 -24 7 -59 16 -79 22 -20 6 -45 7 -57 4 -23 -8 -39 8 -21 20 7 4 9 3 6 -3
-4 -7 8 -9 36 -6 27 3 57 -1 81 -11 66 -27 97 -18 58 17 -11 10 -38 18 -68 19
-39 1 -42 2 -14 5 19 2 44 8 55 13 11 5 27 11 35 13 12 4 11 6 -4 12 -10 5
-21 3 -25 -3 -3 -5 -24 -13 -46 -17 -22 -4 -37 -4 -32 1 10 10 77 34 100 34
11 0 17 8 17 21 0 15 -5 19 -15 15 -8 -3 -15 -2 -15 2 0 4 -10 13 -22 21 -18
10 -20 11 -10 0z m-79 -88 c10 -7 8 -12 -10 -25 -34 -23 -49 -19 -19 5 17 15
19 19 7 15 -11 -3 -16 -2 -12 4 7 12 16 12 34 1z m24 -166 c-7 -21 -12 -19
-10 4 0 11 5 18 9 15 4 -3 5 -11 1 -19z m-340 -60 c-3 -9 -8 -14 -10 -11 -3 3
-2 9 2 15 9 16 15 13 8 -4z"/>
<path d="M2941 2013 c-1 -7 9 -18 21 -24 l21 -11 -24 -13 c-13 -7 -28 -11 -33
-8 -5 4 -6 1 -2 -5 4 -7 2 -13 -3 -13 -6 -1 -15 -2 -20 -3 -6 0 -16 -7 -23
-15 -10 -11 -10 -14 0 -18 13 -5 7 -23 -9 -23 -6 0 -7 5 -3 11 4 7 1 10 -7 7
-18 -6 -46 -55 -37 -64 4 -3 20 -6 35 -6 33 0 43 -12 43 -53 0 -23 14 -43 55
-85 l55 -55 0 47 c0 26 -4 50 -10 53 -5 3 -10 16 -10 27 0 12 -7 29 -15 38
-14 15 -9 16 60 5 54 -9 75 -9 75 -1 0 6 5 4 10 -4 5 -8 10 -10 10 -4 0 6 -9
21 -20 34 -11 13 -20 27 -20 31 0 5 -7 6 -15 3 -9 -4 -15 0 -15 10 0 9 -7 16
-15 16 -21 0 -19 16 6 33 11 8 16 18 11 21 -6 3 -12 -1 -16 -9 -3 -8 -18 -15
-33 -15 -15 0 -45 -5 -66 -11 -22 -6 -41 -8 -44 -5 -11 11 60 36 150 52 53 9
97 21 97 26 0 5 -4 6 -10 3 -5 -3 -10 -2 -10 2 0 5 -29 6 -64 3 -35 -3 -62 -2
-60 2 3 5 -8 8 -25 8 -16 0 -32 6 -34 13 -4 9 -6 9 -6 0z m114 -173 c41 -19
63 -36 33 -25 -7 2 -32 6 -56 9 -24 2 -53 11 -66 19 -13 9 -36 18 -52 20 -16
3 -1 3 33 1 35 -2 82 -12 108 -24z m-152 3 c-7 -2 -21 -2 -30 0 -10 3 -4 5 12
5 17 0 24 -2 18 -5z m53 -82 c22 -43 29 -60 17 -45 -4 6 -19 17 -31 23 -16 9
-22 19 -19 32 3 10 2 17 -3 14 -4 -3 -10 4 -13 15 -8 31 28 3 49 -39z"/>
<path d="M60 1976 c0 -7 10 -18 23 -25 20 -11 20 -11 -9 -7 -43 7 -74 -3 -74
-23 0 -14 11 -18 57 -20 63 -2 159 -31 210 -63 47 -28 41 -31 -20 -8 -30 11
-87 22 -127 25 -41 2 -78 9 -84 15 -5 5 -15 10 -20 10 -6 0 0 -7 13 -16 15
-11 19 -19 12 -24 -7 -4 14 -5 46 -4 l58 3 -70 -10 c-78 -12 -86 -16 -65 -29
10 -7 11 -10 3 -10 -7 0 -13 -7 -13 -16 0 -11 5 -14 18 -9 97 40 214 55 267
35 36 -14 22 -30 -24 -30 -21 0 -53 -7 -72 -16 -40 -20 -100 -74 -93 -85 2 -4
0 -10 -6 -14 -5 -3 -10 -12 -10 -18 0 -7 4 -6 11 3 9 12 10 12 5 -3 -3 -10 -6
-21 -6 -23 0 -3 -4 -2 -10 1 -6 4 -10 -12 -10 -39 0 -25 3 -46 8 -46 6 0 64
54 121 114 14 14 22 29 18 33 -4 3 -28 -17 -53 -45 -50 -56 -70 -67 -52 -27 6
13 14 22 18 20 4 -3 10 9 14 26 4 20 10 28 18 23 7 -5 9 -2 5 9 -3 9 0 18 9
21 10 4 12 2 8 -6 -4 -7 -3 -8 5 -4 6 4 9 11 6 15 -8 14 32 43 63 46 16 1 34
5 40 9 7 4 16 5 21 2 5 -3 14 0 20 8 15 17 -55 92 -83 87 -12 -2 -16 2 -13 11
2 7 10 12 16 10 7 -1 10 2 7 7 -7 10 16 21 47 21 12 0 29 5 37 10 11 7 8 10
-16 10 -17 0 -47 -10 -65 -23 l-35 -24 -64 28 c-36 16 -58 28 -49 29 8 0 24 7
35 15 18 14 17 14 -8 5 -28 -10 -58 -5 -58 10 0 4 -7 10 -15 14 -9 3 -15 0
-15 -8z"/>
<path d="M3656 1972 c-3 -5 8 -6 25 -4 16 2 29 6 29 8 0 8 -49 4 -54 -4z"/>
<path d="M3765 1970 c-3 -6 1 -7 9 -4 18 7 21 14 7 14 -6 0 -13 -4 -16 -10z"/>
<path d="M2695 1960 c-3 -5 3 -10 15 -10 12 0 30 -4 40 -10 15 -8 17 -6 13 10
-6 22 -56 29 -68 10z"/>
<path d="M2820 1966 c0 -2 13 -6 29 -8 17 -2 28 -1 25 4 -5 8 -54 12 -54 4z"/>
<path d="M1012 1940 c0 -14 2 -19 5 -12 2 6 2 18 0 25 -3 6 -5 1 -5 -13z"/>
<path d="M3120 1950 c-9 -6 -10 -10 -3 -10 6 0 15 5 18 10 8 12 4 12 -15 0z"/>
<path d="M1071 1934 c0 -11 3 -14 6 -6 3 7 2 16 -1 19 -3 4 -6 -2 -5 -13z"/>
<path d="M480 1929 c0 -5 -3 -8 -8 -5 -4 2 -16 -2 -27 -11 -19 -13 -18 -14 10
-7 17 4 33 11 36 17 4 5 14 5 27 -2 31 -16 41 -13 12 4 -30 17 -50 19 -50 4z"/>
<path d="M3705 1930 c3 -5 8 -10 11 -10 2 0 4 5 4 10 0 6 -5 10 -11 10 -5 0
-7 -4 -4 -10z"/>
<path d="M3763 1933 c9 -2 23 -2 30 0 6 3 -1 5 -18 5 -16 0 -22 -2 -12 -5z"/>
<path d="M2817 1919 c7 -7 15 -10 18 -7 3 3 -2 9 -12 12 -14 6 -15 5 -6 -5z"/>
<path d="M360 1910 c-9 -6 -10 -10 -3 -10 6 0 15 5 18 10 8 12 4 12 -15 0z"/>
<path d="M518 1883 c-17 -11 -18 -13 -3 -8 11 4 25 8 32 9 19 3 25 13 9 13 -8
0 -25 -7 -38 -14z"/>
<path d="M1012 1870 c0 -14 2 -19 5 -12 2 6 2 18 0 25 -3 6 -5 1 -5 -13z"/>
<path d="M426 1871 c-4 -5 3 -7 14 -4 23 6 26 13 6 13 -8 0 -17 -4 -20 -9z"/>
<path d="M308 1863 c6 -2 18 -2 25 0 6 3 1 5 -13 5 -14 0 -19 -2 -12 -5z"/>
<path d="M1002 1790 c0 -14 2 -19 5 -12 2 6 2 18 0 25 -3 6 -5 1 -5 -13z"/>
<path d="M200 1788 c-19 -5 -50 -16 -68 -26 -27 -14 -29 -18 -15 -23 11 -4 32
3 53 17 23 16 49 24 79 24 24 0 42 2 40 4 -12 10 -58 13 -89 4z"/>
<path d="M1063 1745 c0 -22 2 -30 4 -17 2 12 2 30 0 40 -3 9 -5 -1 -4 -23z"/>
<path d="M55 1750 c-3 -5 1 -10 9 -10 9 0 16 5 16 10 0 6 -4 10 -9 10 -6 0
-13 -4 -16 -10z"/>
<path d="M7 1733 c7 -2 19 -2 26 0 6 3 1 5 -13 5 -14 0 -19 -2 -13 -5z"/>
<path d="M1001 1704 c0 -11 3 -14 6 -6 3 7 2 16 -1 19 -3 4 -6 -2 -5 -13z"/>
<path d="M1061 1664 c0 -11 3 -14 6 -6 3 7 2 16 -1 19 -3 4 -6 -2 -5 -13z"/>
<path d="M2596 1645 c-3 -8 -1 -25 4 -37 8 -20 9 -18 9 15 1 39 -3 47 -13 22z"/>
<path d="M1013 1615 c0 -22 2 -30 4 -17 2 12 2 30 0 40 -3 9 -5 -1 -4 -23z"/>
<path d="M1062 1610 c0 -19 2 -27 5 -17 2 9 2 25 0 35 -3 9 -5 1 -5 -18z"/>
<path d="M3607 1608 c2 -5 10 -8 18 -8 8 0 16 3 18 8 3 4 -5 7 -18 7 -13 0
-21 -3 -18 -7z"/>
<path d="M2849 1597 c16 -20 37 -22 47 -5 4 7 3 8 -4 4 -6 -4 -22 -1 -34 5
-21 11 -22 11 -9 -4z"/>
<path d="M318 1562 c-4 -16 -1 -18 16 -14 17 4 19 2 9 -9 -19 -20 -16 -33 3
-14 13 13 19 14 25 4 4 -7 5 -17 2 -22 -3 -4 15 -6 40 -3 42 5 45 4 39 -17 -3
-12 -7 -17 -9 -12 -2 6 -22 9 -45 7 -24 -1 -51 -2 -61 -3 -9 0 -15 -4 -12 -9
8 -13 175 -9 175 5 0 7 13 9 33 7 23 -3 37 2 48 14 12 16 12 17 -1 9 -21 -14
-68 -12 -63 1 2 6 -3 14 -11 17 -9 4 -16 16 -16 27 0 19 -4 21 -32 14 -46 -10
-121 -6 -129 7 -3 6 -8 3 -11 -9z m182 -62 c0 -12 -28 -25 -36 -17 -9 9 6 27
22 27 8 0 14 -5 14 -10z"/>
<path d="M3951 1566 c-25 -14 -38 -51 -21 -61 11 -7 32 29 23 39 -3 3 1 6 10
6 9 0 21 -8 26 -17 9 -15 10 -12 11 15 0 35 -11 39 -49 18z"/>
<path d="M1063 1505 c0 -38 2 -53 4 -32 2 20 2 52 0 70 -2 17 -4 1 -4 -38z"/>
<path d="M1007 1543 c-6 -11 -9 -779 -3 -772 5 5 16 779 10 779 -1 0 -5 -3 -7
-7z"/>
<path d="M3416 1535 c-3 -9 -6 -24 -6 -33 1 -15 2 -15 11 1 14 23 35 21 42 -4
4 -15 11 -20 21 -16 9 4 16 5 17 4 0 -1 3 -22 6 -47 3 -25 10 -47 15 -49 6 -2
4 -8 -3 -13 -12 -8 -11 -9 1 -6 17 5 22 108 4 108 -6 0 -15 15 -20 33 -8 27
-15 32 -46 35 -25 2 -37 -1 -42 -13z"/>
<path d="M1172 1520 c0 -14 2 -19 5 -12 2 6 2 18 0 25 -3 6 -5 1 -5 -13z"/>
<path d="M3025 1530 c-4 -6 -10 -8 -15 -5 -5 3 -12 -5 -16 -19 -3 -14 -13 -27
-22 -30 -12 -3 -11 -4 3 -3 11 1 26 -3 34 -7 11 -7 13 -5 8 7 -4 10 -1 17 6
17 8 0 8 3 -2 9 -26 16 22 18 50 2 22 -12 27 -22 25 -51 -1 -19 -5 -41 -10
-48 -4 -7 -6 -16 -3 -19 3 -2 13 9 21 26 19 35 21 91 4 91 -6 0 -8 3 -5 7 4 3
2 12 -4 20 -13 15 -65 18 -74 3z"/>
<path d="M3846 1521 c-11 -4 -23 -16 -27 -27 -7 -18 -8 -18 -15 4 -4 15 -14
22 -30 22 -13 0 -24 -5 -24 -11 0 -5 5 -7 12 -3 7 4 8 3 4 -5 -4 -6 -12 -9
-17 -6 -5 4 -9 2 -9 -3 0 -6 -10 -8 -22 -4 -21 5 -22 4 -8 -14 14 -18 14 -18
-6 -1 -24 20 -41 23 -26 5 12 -16 13 -68 1 -68 -5 0 -9 5 -9 10 0 6 -5 10 -11
10 -5 0 -7 -4 -4 -10 3 -5 -1 -10 -9 -10 -9 0 -13 7 -11 19 2 11 0 32 -5 48
-4 15 -9 22 -9 16 -1 -8 -15 -13 -36 -13 -30 0 -35 -3 -35 -24 0 -14 5 -28 11
-32 8 -4 7 -9 -2 -15 -15 -10 20 -14 80 -10 19 2 44 -3 57 -10 19 -10 27 -9
48 5 28 18 93 24 66 5 -11 -7 -6 -9 20 -7 19 1 41 -1 47 -5 15 -9 63 2 63 15
0 5 6 8 13 7 18 -3 47 12 47 24 0 7 -4 7 -12 -1 -7 -7 -19 -12 -27 -12 -9 0
-29 -7 -45 -15 -37 -19 -37 -20 -21 13 7 15 16 39 19 55 6 26 4 27 -31 28 -24
1 -29 3 -15 6 12 2 22 9 22 14 0 11 -17 11 -44 0z m-9 -63 c-3 -8 -6 -5 -6 6
-1 11 2 17 5 13 3 -3 4 -12 1 -19z m-238 0 c0 -7 -4 -22 -9 -33 -7 -19 -8 -19
-18 5 -5 14 -8 28 -5 33 7 12 33 8 32 -5z m198 -30 c-3 -7 -5 -2 -5 12 0 14 2
19 5 13 2 -7 2 -19 0 -25z m-70 16 c-3 -3 -12 -4 -19 -1 -8 3 -5 6 6 6 11 1
17 -2 13 -5z m53 -15 c0 -5 -4 -9 -8 -9 -5 0 -9 7 -9 15 0 8 4 12 9 9 4 -3 8
-9 8 -15z m-160 -10 c0 -5 -4 -9 -10 -9 -5 0 -10 7 -10 16 0 8 5 12 10 9 6 -3
10 -10 10 -16z m225 11 c3 -5 -3 -10 -15 -10 -12 0 -18 5 -15 10 3 6 10 10 15
10 5 0 12 -4 15 -10z m-108 -22 c-3 -8 -6 -5 -6 6 -1 11 2 17 5 13 3 -3 4 -12
1 -19z"/>
<path d="M3682 1512 c-18 -2 -30 -7 -28 -10 6 -10 86 -2 86 7 0 8 -4 8 -58 3z"/>
<path d="M280 1480 c-23 -18 -23 -20 -5 -20 11 0 26 9 33 20 15 25 4 25 -28 0z"/>
<path d="M3980 1470 c-6 -11 -8 -20 -6 -20 3 0 10 9 16 20 6 11 8 20 6 20 -3
0 -10 -9 -16 -20z"/>
<path d="M3640 1469 c0 -5 5 -7 10 -4 6 3 10 8 10 11 0 2 -4 4 -10 4 -5 0 -10
-5 -10 -11z"/>
<path d="M796 1432 c-2 -2 -16 -4 -30 -6 -15 -1 -26 -6 -26 -9 0 -4 0 -11 0
-17 0 -5 5 -9 12 -7 6 1 13 -7 15 -18 l3 -20 -9 20 c-5 11 -10 16 -10 11 -1
-5 -8 -3 -16 4 -13 11 -13 8 -4 -19 6 -17 14 -31 18 -31 14 0 31 24 31 43 0
15 5 18 21 14 17 -5 18 -3 7 11 -7 9 0 6 16 -8 21 -19 27 -32 24 -52 -3 -16
-1 -28 3 -28 13 0 20 -33 9 -44 -8 -8 -9 -5 -5 9 5 16 5 17 -3 5 -6 -8 -9 -17
-6 -21 9 -15 -17 -20 -34 -7 -15 11 -16 11 -4 -3 11 -14 9 -17 -10 -23 -19 -5
-20 -8 -8 -15 8 -6 17 -6 20 -2 3 4 15 13 28 20 29 16 62 69 62 101 0 31 -37
93 -50 85 -6 -3 -10 -2 -10 2 0 8 -37 13 -44 5z"/>
<path d="M3405 1410 c16 -16 36 -30 44 -29 13 0 13 2 2 6 -8 3 -24 16 -36 29
-12 13 -26 24 -31 24 -4 0 5 -13 21 -30z"/>
<path d="M1061 1414 c0 -11 3 -14 6 -6 3 7 2 16 -1 19 -3 4 -6 -2 -5 -13z"/>
<path d="M0 1375 c0 -8 4 -15 9 -15 5 0 11 -10 13 -22 2 -14 11 -24 24 -26 16
-2 26 -16 37 -52 9 -27 26 -59 38 -71 12 -12 20 -16 17 -8 -4 11 4 14 36 14
22 0 46 -3 52 -7 15 -10 54 2 54 16 0 7 3 8 8 0 4 -6 30 -8 67 -5 52 5 60 9
63 28 2 12 9 26 16 32 9 8 12 4 12 -17 -1 -27 0 -27 72 -30 39 -1 72 1 72 6 0
4 23 8 51 7 44 0 54 4 68 25 12 18 12 22 2 15 -11 -6 -13 -4 -8 9 4 10 8 27 8
39 1 17 3 15 9 -8 7 -28 8 -28 9 12 0 23 -4 43 -10 45 -6 2 -79 -2 -163 -9
-83 -7 -205 -14 -271 -14 -79 -1 -110 -4 -92 -9 15 -5 66 -8 112 -7 46 1 80
-2 76 -6 -4 -4 -50 -8 -102 -8 -52 -1 -85 -4 -75 -8 18 -7 18 -8 2 -14 -15 -6
-16 -10 -6 -22 16 -19 39 -8 33 16 -6 22 16 26 35 7 17 -17 15 -29 -3 -22 -19
8 -21 -32 -2 -40 6 -2 -1 -5 -18 -5 -16 0 -46 -2 -65 -4 -49 -6 -62 1 -49 24
7 14 6 19 -2 19 -6 0 -9 7 -6 14 4 11 1 13 -10 9 -12 -5 -14 -3 -8 8 7 11 5
11 -10 -1 -17 -14 -18 -14 -7 6 15 29 5 58 -28 77 -35 21 -60 22 -60 2z m54
-26 c-3 -6 0 -15 7 -20 11 -7 11 -9 -3 -9 -9 0 -20 5 -23 10 -7 12 2 30 16 30
6 0 7 -5 3 -11z m580 -46 c-2 -59 -3 -63 -18 -63 -12 0 -13 6 -4 32 9 25 8 33
-1 36 -11 4 -10 6 0 13 10 6 5 9 -16 9 -44 0 -59 -13 -52 -46 8 -43 -1 -54
-44 -54 l-40 0 16 30 c9 17 11 30 6 30 -6 0 -8 7 -5 15 5 11 -1 15 -26 15 -18
0 -29 -4 -25 -10 10 -15 -1 -12 -15 5 -11 14 -6 15 44 14 31 -1 59 0 61 3 3 3
31 6 63 7 l57 1 -1 -37z m46 -17 c0 -21 -6 -36 -15 -40 -16 -6 -21 9 -6 18 4
3 6 17 3 31 -2 15 0 25 7 25 6 0 11 -15 11 -34z m-336 -23 c18 3 39 1 46 -3
18 -11 21 -50 3 -43 -7 3 -11 8 -9 12 3 4 1 13 -5 21 -7 13 -9 13 -10 0 -1 -8
-1 -18 0 -22 1 -14 -87 -6 -93 8 -4 11 -2 12 14 4 12 -7 21 -7 25 0 3 5 -1 10
-9 10 -11 0 -15 7 -12 23 7 33 8 34 13 8 4 -20 9 -23 37 -18z m244 2 c-1 -14
-8 -25 -14 -25 -7 0 -9 10 -6 25 2 14 8 25 13 25 5 0 8 -11 7 -25z m-481 -17
c-3 -8 -6 -5 -6 6 -1 11 2 17 5 13 3 -3 4 -12 1 -19z"/>
<path d="M494 1290 c-1 -18 3 -27 9 -23 7 4 8 -1 3 -13 -5 -14 -4 -16 4 -8 17
17 19 47 4 61 -18 18 -19 17 -20 -17z"/>
<path d="M3556 1345 c3 -6 11 -12 18 -12 8 0 12 6 10 12 -3 6 -11 12 -18 12
-8 0 -12 -6 -10 -12z"/>
<path d="M105 1330 c4 -6 11 -8 16 -5 14 9 11 15 -7 15 -8 0 -12 -5 -9 -10z"/>
<path d="M3579 1307 c6 -8 10 -16 8 -18 -2 -2 7 -14 20 -26 17 -16 23 -18 23
-8 0 8 4 15 9 15 17 0 23 -20 11 -35 -10 -12 -10 -18 0 -30 7 -8 10 -32 8 -55
-2 -22 0 -40 4 -40 4 0 8 19 10 42 2 30 8 42 21 44 9 1 17 -2 17 -7 0 -5 -5
-9 -11 -9 -7 0 -9 -12 -5 -34 5 -27 3 -37 -11 -45 -10 -5 -16 -11 -13 -13 3
-3 21 -14 40 -26 26 -16 30 -22 16 -22 -11 0 -17 -2 -14 -5 8 -9 58 6 58 16 0
5 -3 8 -7 8 -22 -4 -43 2 -43 12 0 5 5 7 10 4 15 -9 12 2 -6 30 -15 23 -15 25
0 25 11 0 14 5 10 12 -4 6 -7 26 -6 45 1 27 -2 34 -16 32 -63 -6 -81 9 -20 17
18 3 38 7 45 9 7 2 10 -3 7 -13 -3 -9 2 -3 11 13 10 17 25 36 34 44 14 12 13
12 -8 6 -17 -5 -21 -4 -16 5 6 9 3 9 -13 1 -27 -14 -54 -15 -32 -1 13 8 13 10
-1 10 -9 0 -20 -8 -24 -17 -7 -17 -8 -16 -15 2 -5 11 -9 15 -9 8 -1 -7 -9 -10
-18 -7 -15 5 -15 3 1 -10 25 -21 7 -21 -22 0 -12 8 -22 12 -22 7 0 -4 -5 0
-11 10 -5 9 -15 17 -21 17 -7 0 -7 -4 1 -13z m132 -220 c-13 -13 -26 -3 -16
12 3 6 11 8 17 5 6 -4 6 -10 -1 -17z"/>
<path d="M3788 1313 c7 -3 16 -2 19 1 4 3 -2 6 -13 5 -11 0 -14 -3 -6 -6z"/>
<path d="M141 1284 c0 -11 3 -14 6 -6 3 7 2 16 -1 19 -3 4 -6 -2 -5 -13z"/>
<path d="M168 1294 c-5 -4 -8 -21 -8 -38 1 -26 2 -28 11 -13 11 19 8 63 -3 51z"/>
<path d="M1061 1253 c0 -25 1 -26 9 -8 12 27 12 35 0 35 -5 0 -10 -12 -9 -27z"/>
<path d="M1161 1234 c0 -11 3 -14 6 -6 3 7 2 16 -1 19 -3 4 -6 -2 -5 -13z"/>
<path d="M682 1210 c-39 -9 -53 -20 -27 -20 17 0 16 -3 -6 -27 -22 -26 -21
-26 9 2 18 17 52 35 75 42 37 10 38 11 12 11 -16 0 -45 -4 -63 -8z"/>
<path d="M3030 1210 c0 -5 5 -10 11 -10 5 0 7 5 4 10 -3 6 -8 10 -11 10 -2 0
-4 -4 -4 -10z"/>
<path d="M1162 1190 c0 -14 2 -19 5 -12 2 6 2 18 0 25 -3 6 -5 1 -5 -13z"/>
<path d="M0 1180 c0 -4 22 -10 50 -12 27 -1 46 0 42 3 -11 10 -92 18 -92 9z"/>
<path d="M1071 1164 c0 -11 3 -14 6 -6 3 7 2 16 -1 19 -3 4 -6 -2 -5 -13z"/>
<path d="M3741 1164 c0 -11 3 -14 6 -6 3 7 2 16 -1 19 -3 4 -6 -2 -5 -13z"/>
<path d="M3820 1156 c0 -8 4 -17 9 -20 5 -4 7 3 4 14 -6 23 -13 26 -13 6z"/>
<path d="M1163 1120 c0 -25 2 -35 4 -22 2 12 2 32 0 45 -2 12 -4 2 -4 -23z"/>
<path d="M175 1120 c10 -11 23 -20 29 -20 6 0 4 5 -4 10 -13 9 -13 10 0 10 13
0 13 1 0 10 -8 5 -21 10 -29 10 -11 0 -10 -5 4 -20z"/>
<path d="M1074 1030 c0 -52 1 -74 3 -47 2 26 2 68 0 95 -2 26 -3 4 -3 -48z"/>
<path d="M2712 1105 c0 -11 3 -29 8 -40 11 -25 11 1 0 35 -6 20 -8 21 -8 5z"/>
<path d="M3340 1101 c0 -6 4 -13 10 -16 6 -3 7 1 4 9 -7 18 -14 21 -14 7z"/>
<path d="M480 1096 c0 -2 7 -6 15 -10 8 -3 15 -1 15 4 0 6 -7 10 -15 10 -8 0
-15 -2 -15 -4z"/>
<path d="M526 1079 c-14 -11 -26 -16 -26 -10 0 14 -37 14 -45 1 -4 -6 -13 -5
-25 2 -14 9 -22 9 -34 -1 -12 -10 -19 -11 -30 -2 -11 9 -17 8 -29 -4 -16 -16
-32 -21 -23 -7 2 4 -12 9 -32 10 l-37 3 45 -29 c37 -23 55 -28 105 -28 57 1
60 2 60 26 0 16 6 25 15 25 11 0 14 -9 12 -34 -1 -19 -4 -37 -6 -39 -2 -2 -34
-4 -70 -5 -36 -1 -66 -5 -66 -9 0 -8 8 -10 45 -12 11 -1 20 -8 21 -16 2 -31 5
-35 14 -20 8 12 10 10 11 -10 1 -24 2 -23 10 5 6 24 7 20 3 -15 -3 -25 -5 -55
-5 -67 1 -21 -23 -38 -40 -27 -5 3 -9 -2 -9 -10 0 -13 5 -14 28 -4 15 6 39 10
55 9 15 -1 27 2 27 7 0 5 -10 8 -22 8 -17 -1 -23 5 -25 27 -1 15 1 26 5 23 4
-2 5 20 4 50 -3 43 -1 54 11 54 8 0 29 25 46 55 23 41 35 53 48 48 11 -4 14
-3 9 5 -10 17 -19 15 -50 -9z m-152 -27 c7 -12 -7 -29 -25 -29 -11 0 -15 7
-11 19 4 18 27 25 36 10z m42 -3 c3 -6 0 -15 -7 -20 -21 -13 -33 -11 -20 4 6
8 8 17 4 20 -3 4 -1 7 5 7 6 0 14 -5 18 -11z"/>
<path d="M2940 1076 c0 -8 4 -17 9 -20 5 -4 7 3 4 14 -6 23 -13 26 -13 6z"/>
<path d="M2900 1075 c0 -4 9 -18 20 -32 11 -14 20 -22 20 -18 0 4 -9 18 -20
32 -11 14 -20 22 -20 18z"/>
<path d="M834 1049 c-3 -6 -15 -9 -25 -6 -11 3 -17 1 -13 -4 9 -14 41 -10 48
6 6 17 0 20 -10 4z"/>
<path d="M2775 1045 c-3 -8 -7 -21 -9 -29 -3 -10 2 -12 16 -8 14 3 16 7 7 12
-6 5 -9 15 -6 24 4 9 4 16 1 16 -2 0 -7 -7 -9 -15z"/>
<path d="M3625 1030 c3 -5 8 -10 11 -10 2 0 4 5 4 10 0 6 -5 10 -11 10 -5 0
-7 -4 -4 -10z"/>
<path d="M3663 1033 c9 -2 23 -2 30 0 6 3 -1 5 -18 5 -16 0 -22 -2 -12 -5z"/>
<path d="M2848 973 c7 -3 16 -2 19 1 4 3 -2 6 -13 5 -11 0 -14 -3 -6 -6z"/>
<path d="M828 958 c5 -5 16 -8 23 -6 8 3 3 7 -10 11 -17 4 -21 3 -13 -5z"/>
<path d="M931 954 c0 -11 3 -14 6 -6 3 7 2 16 -1 19 -3 4 -6 -2 -5 -13z"/>
<path d="M2743 963 c9 -2 23 -2 30 0 6 3 -1 5 -18 5 -16 0 -22 -2 -12 -5z"/>
<path d="M2648 953 c6 -2 18 -2 25 0 6 3 1 5 -13 5 -14 0 -19 -2 -12 -5z"/>
<path d="M362 923 c-1 -22 0 -25 9 -13 8 11 9 6 7 -21 -3 -25 0 -36 9 -35 16
3 30 16 16 16 -5 0 -10 6 -10 14 0 8 6 12 14 9 7 -3 13 0 13 6 0 6 -6 11 -14
11 -8 0 -18 9 -21 20 -9 28 -20 25 -23 -7z"/>
<path d="M590 921 c0 -5 5 -13 10 -16 6 -3 10 -2 10 4 0 5 -4 13 -10 16 -5 3
-10 2 -10 -4z"/>
<path d="M902 884 c-12 -19 -20 -34 -18 -34 7 0 49 61 44 65 -2 2 -13 -12 -26
-31z"/>
<path d="M220 886 c0 -2 8 -10 18 -17 15 -13 16 -12 3 4 -13 16 -21 21 -21 13z"/>
<path d="M351 811 c-8 -5 -9 -11 -3 -15 5 -3 15 1 22 9 14 16 3 20 -19 6z"/>
<path d="M538 773 c7 -3 16 -2 19 1 4 3 -2 6 -13 5 -11 0 -14 -3 -6 -6z"/>
<path d="M898 743 c6 -2 18 -2 25 0 6 3 1 5 -13 5 -14 0 -19 -2 -12 -5z"/>
<path d="M2458 680 c-11 -12 -13 -22 -7 -26 6 -3 13 3 16 15 3 12 9 21 15 21
5 0 4 -9 -2 -21 -14 -26 -4 -81 11 -58 12 20 11 37 -2 19 -8 -11 -9 -8 -4 15
4 16 7 34 8 39 4 18 -19 16 -35 -4z"/>
<path d="M3071 684 c0 -11 3 -14 6 -6 3 7 2 16 -1 19 -3 4 -6 -2 -5 -13z"/>
<path d="M2420 640 c-12 -8 -10 -10 8 -10 13 0 20 4 17 10 -7 12 -6 12 -25 0z"/>
<path d="M3000 634 c0 -14 3 -14 15 -4 8 7 15 14 15 16 0 2 -7 4 -15 4 -8 0
-15 -7 -15 -16z"/>
<path d="M3063 530 c0 -25 2 -35 4 -22 2 12 2 32 0 45 -2 12 -4 2 -4 -23z"/>
<path d="M1246 511 c-3 -4 6 -6 19 -3 14 2 25 6 25 8 0 8 -39 4 -44 -5z"/>
<path d="M3042 253 c-1 -12 -5 -28 -8 -37 -4 -11 -1 -16 10 -16 27 0 18 -17
-11 -23 -62 -12 -98 -25 -75 -26 15 -1 22 -7 22 -21 0 -11 4 -20 9 -20 5 0 11
-18 13 -40 2 -29 0 -40 -12 -44 -12 -3 -12 -4 2 -5 21 -1 50 27 41 42 -4 7 -9
4 -14 -9 -4 -10 -8 -13 -8 -6 -1 7 4 22 9 33 7 13 7 19 0 19 -5 0 -10 16 -10
35 0 35 20 51 20 18 1 -17 1 -17 14 -1 8 12 16 14 23 7 6 -6 8 1 5 21 -2 16
-8 30 -13 30 -4 0 -10 15 -12 33 -2 17 -5 22 -5 10z"/>
<path d="M2996 238 c3 -4 9 -8 15 -8 5 0 9 4 9 8 0 5 -7 9 -15 9 -8 0 -12 -4
-9 -9z"/>
<path d="M2751 158 c-1 -20 30 -22 84 -7 24 6 20 8 -22 5 -31 -2 -54 1 -57 8
-2 6 -5 3 -5 -6z"/>
</g>
</svg>
